<svg version="1.1"
	 xmlns="http://www.w3.org/2000/svg" xmlns:xlink="http://www.w3.org/1999/xlink" xmlns:a="http://ns.adobe.com/AdobeSVGViewerExtensions/3.0/"
	 x="0px" y="0px" width="45px" height="23px" viewBox="0 0 45 23" overflow="visible" enable-background="new 0 0 45 23"
	 xml:space="preserve">
<defs>
</defs>
<g>
	<defs>
		<rect id="SVGID_1_" y="0" width="45" height="23.487"/>
	</defs>
	<clipPath id="SVGID_2_">
		<use xlink:href="#SVGID_1_"  overflow="visible"/>
	</clipPath>
	<path clip-path="url(#SVGID_2_)" fill="#312a29" d="M23.445,16.798c-0.202-0.016-0.407-0.023-0.613-0.023
		c-0.216,0-0.431,0.008-0.643,0.025l0.543,5.058h0.22L23.445,16.798z"/>
	<path clip-path="url(#SVGID_2_)" fill="#312a29" d="M23.485,16.377c-0.215-0.017-0.434-0.025-0.653-0.025
		c-0.23,0-0.46,0.01-0.687,0.028L20.382,0l4.642,0.618L23.485,16.377z"/>
	<path clip-path="url(#SVGID_2_)" fill="#312a29" d="M21.742,16.848c-0.201,0.027-0.403,0.062-0.604,0.105
		c-0.212,0.046-0.42,0.099-0.623,0.16l1.588,4.832l0.214-0.046L21.742,16.848z"/>
	<path clip-path="url(#SVGID_2_)" fill="#312a29" d="M21.693,16.429c-0.214,0.028-0.429,0.065-0.644,0.111
		c-0.226,0.049-0.448,0.105-0.666,0.172L15.234,1.062l4.669-0.367L21.693,16.429z"/>
	<path clip-path="url(#SVGID_2_)" fill="#312a29" d="M20.087,17.253c-0.191,0.069-0.381,0.146-0.569,0.229
		c-0.197,0.089-0.389,0.184-0.576,0.287l2.564,4.393l0.2-0.09L20.087,17.253z"/>
	<path clip-path="url(#SVGID_2_)" fill="#312a29" d="M19.952,16.854c-0.203,0.073-0.406,0.154-0.606,0.244
		c-0.211,0.094-0.417,0.197-0.616,0.307L10.421,3.178l4.489-1.335L19.952,16.854z"/>
	<path clip-path="url(#SVGID_2_)" fill="#312a29" d="M18.554,17.996c-0.172,0.106-0.342,0.222-0.508,0.343
		c-0.175,0.128-0.343,0.262-0.504,0.401l3.426,3.76l0.177-0.13L18.554,17.996z"/>
	<path clip-path="url(#SVGID_2_)" fill="#312a29" d="M18.337,17.634c-0.184,0.113-0.364,0.234-0.542,0.364
		c-0.186,0.138-0.366,0.28-0.538,0.43L6.159,6.252l4.111-2.244L18.337,17.634z"/>
	<path clip-path="url(#SVGID_2_)" fill="#312a29" d="M17.209,19.043c-0.146,0.141-0.288,0.288-0.425,0.441
		c-0.144,0.162-0.281,0.327-0.409,0.497l4.137,2.96l0.145-0.163L17.209,19.043z"/>
	<path clip-path="url(#SVGID_2_)" fill="#312a29" d="M16.922,18.733c-0.156,0.15-0.307,0.306-0.453,0.47
		c-0.155,0.173-0.3,0.352-0.437,0.532L2.633,10.151l3.55-3.054L16.922,18.733z"/>
	<path clip-path="url(#SVGID_2_)" fill="#312a29" d="M16.114,20.348c-0.113,0.168-0.221,0.342-0.323,0.521
		c-0.107,0.188-0.206,0.38-0.296,0.571l4.664,2.03l0.108-0.19L16.114,20.348z"/>
	<path clip-path="url(#SVGID_2_)" fill="#312a29" d="M15.768,20.105c-0.121,0.179-0.236,0.363-0.345,0.555
		c-0.115,0.201-0.22,0.405-0.316,0.611L0,14.7l2.833-3.729L15.768,20.105z"/>
	<path clip-path="url(#SVGID_2_)" fill="#312a29" d="M25.121,17.104c-0.194-0.058-0.393-0.108-0.595-0.151
		c-0.211-0.045-0.423-0.082-0.634-0.108l-0.526,5.059l0.214,0.046L25.121,17.104z"/>
	<path clip-path="url(#SVGID_2_)" fill="#312a29" d="M25.248,16.701c-0.207-0.062-0.418-0.114-0.633-0.161
		c-0.226-0.049-0.453-0.087-0.678-0.115l1.701-16.387l4.41,1.575L25.248,16.701z"/>
	<path clip-path="url(#SVGID_2_)" fill="#312a29" d="M26.696,17.755c-0.178-0.097-0.362-0.188-0.55-0.272
		c-0.197-0.088-0.396-0.168-0.598-0.238l-1.572,4.837l0.2,0.09L26.696,17.755z"/>
	<path clip-path="url(#SVGID_2_)" fill="#312a29" d="M26.904,17.388c-0.189-0.104-0.385-0.2-0.585-0.29
		c-0.211-0.096-0.425-0.181-0.639-0.256l5.09-15.668l3.984,2.462L26.904,17.388z"/>
	<path clip-path="url(#SVGID_2_)" fill="#312a29" d="M28.101,18.721c-0.154-0.133-0.314-0.26-0.481-0.382
		c-0.174-0.128-0.352-0.246-0.534-0.358l-2.549,4.401l0.177,0.13L28.101,18.721z"/>
	<path clip-path="url(#SVGID_2_)" fill="#312a29" d="M28.381,18.404c-0.164-0.141-0.334-0.275-0.513-0.406
		c-0.186-0.137-0.377-0.265-0.57-0.383l8.254-14.258l3.381,3.241L28.381,18.404z"/>
	<path clip-path="url(#SVGID_2_)" fill="#312a29" d="M29.271,19.958c-0.123-0.161-0.253-0.319-0.392-0.473
		c-0.144-0.162-0.293-0.316-0.445-0.464l-3.414,3.771l0.146,0.164L29.271,19.958z"/>
	<path clip-path="url(#SVGID_2_)" fill="#312a29" d="M29.611,19.708c-0.131-0.172-0.269-0.34-0.415-0.504
		c-0.153-0.174-0.313-0.339-0.479-0.494L39.771,6.493l2.628,3.876L29.611,19.708z"/>
	<path clip-path="url(#SVGID_2_)" fill="#312a29" d="M30.157,21.413c-0.087-0.183-0.181-0.365-0.282-0.544
		c-0.107-0.188-0.222-0.37-0.34-0.546l-4.128,2.974l0.109,0.19L30.157,21.413z"/>
	<path clip-path="url(#SVGID_2_)" fill="#312a29" d="M30.543,21.239c-0.093-0.195-0.192-0.389-0.302-0.58
		c-0.113-0.2-0.235-0.396-0.364-0.583L43.24,10.44L45,14.781L30.543,21.239z"/>
</g>
</svg>