<?xml version="1.0" standalone="no"?><!DOCTYPE svg PUBLIC "-//W3C//DTD SVG 1.1//EN" "http://www.w3.org/Graphics/SVG/1.1/DTD/svg11.dtd"><svg t="1571796967760" class="icon" viewBox="0 0 1024 1024" version="1.1" xmlns="http://www.w3.org/2000/svg" p-id="6212" xmlns:xlink="http://www.w3.org/1999/xlink" width="200" height="200"><defs><style type="text/css"></style></defs><path d="M960.001 319.98v608c0 17.692-14.328 32-32.002 32H96.001c-17.712 0-31.999-14.308-31.999-32v-608H0v640C0 995.309 28.672 1024 64.001 1024h896c35.326 0 63.999-28.692 63.999-64.02v-640h-63.999zM192 832h128c17.673 0 32-14.326 32-32.019V704c0-17.693-14.326-32-32-32H192c-17.712 0-32 14.307-32 32v95.981C160 817.673 174.288 832 192 832m0-224h128c17.673 0 32-14.326 32-32.02v-96c0-17.671-14.326-32-32-32H192c-17.712 0-32 14.328-32 32.001v96c0 17.692 14.289 32.02 32 32.02M448 832h128c17.674 0 32-14.326 32-32.019V704c0-17.693-14.326-32-32-32H448c-17.712 0-32 14.307-32 32v95.981C416 817.673 430.288 832 448 832m0-224h128c17.674 0 32-14.326 32-32.02v-96c0-17.671-14.326-32-32-32H448c-17.712 0-32 14.328-32 32.001v96c0 17.692 14.289 32.02 32 32.02M704 832h128c17.674 0 32-14.326 32-32.019V704c0-17.693-14.326-32-32-32H704c-17.674 0-32 14.307-32 32v95.981C672 817.673 686.325 832 704 832m0-224h128c17.674 0 32-14.326 32-32.02v-96c0-17.671-14.326-32-32-32H704c-17.674 0-32 14.328-32 32.001v96c0 17.692 14.326 32.02 32 32.02" fill="#CCCCCC" p-id="6213"></path><path d="M1024 161.596V320H0V161.596c0-35.346 28.672-64.02 64.001-64.02h17.327v55.75c0 40.713 33.115 73.847 73.789 73.847 40.768 0 73.884-33.134 73.884-73.847V97.577h90.249v55.75c0 40.713 33.135 73.847 73.866 73.847 40.673 0 73.77-33.134 73.77-73.847v-55.75h90.288v55.75c0 40.713 33.115 73.847 73.826 73.847 40.692 0 73.789-33.134 73.789-73.847v-55.75h90.288v55.75c0 40.713 33.135 73.847 73.847 73.847 40.673 0 73.787-33.134 73.787-73.847v-55.75H960c35.326 0 63.999 28.674 63.999 64.02z m-910.674-8.269v-111.5C113.326 18.73 132.038 0 155.116 0 178.25 0 197 18.73 197 41.827v111.5c0 23.114-18.75 41.845-41.884 41.845-23.078 0-41.79-18.73-41.79-41.846z m713.75 0v-111.5C827.079 18.73 845.79 0 868.925 0c23.115 0 41.788 18.73 41.788 41.827v111.5c0 23.114-18.673 41.845-41.788 41.845-23.134 0-41.846-18.73-41.846-41.846z m-475.825 0v-111.5C351.251 18.73 370 0 393.115 0c23.057 0 41.769 18.73 41.769 41.827v111.5c0 23.114-18.712 41.845-41.77 41.845-23.115 0-41.865-18.73-41.865-41.846z m237.921 0v-111.5C589.172 18.73 607.922 0 631 0c23.116 0 41.788 18.73 41.788 41.827v111.5c0 23.114-18.672 41.845-41.788 41.845-23.078 0-41.828-18.73-41.828-41.846z" fill="#ED7261" p-id="6214"></path></svg>