<?xml version="1.0" encoding="UTF-8"?>
<svg width="103px" height="103px" viewBox="0 0 103 103" version="1.1" xmlns="http://www.w3.org/2000/svg" xmlns:xlink="http://www.w3.org/1999/xlink">
    <!-- Generator: Sketch 47.1 (45422) - http://www.bohemiancoding.com/sketch -->
    <title>Fans of MO Logo WHT</title>
    <desc>Created with Sketch.</desc>
    <defs></defs>
    <g id="Symbols" stroke="none" stroke-width="1" fill="none" fill-rule="evenodd">
        <g id="fom-dropdown" transform="translate(-266.000000, -55.000000)" fill-rule="nonzero" fill="#FFFFFF">
            <g id="My-Mo" transform="translate(266.000000, 55.000000)">
                <g id="Fans-of-MO-Logo-WHT">
                    <path d="M0.17906815,10.2854622 C0.21488178,9.59491884 0.21488178,9.15878617 0.21488178,8.6863091 C0.21488178,8.17748765 0.21488178,7.74135498 0.17906815,7.19618913 C0.21488178,7.12350035 0.39394993,7.08715596 0.465577191,7.15984474 L0.501390821,7.45059986 C0.573018081,8.14114326 0.752086231,8.17748765 1.96974965,8.17748765 L6.195758,8.17748765 C7.41342142,8.17748765 7.59248957,8.14114326 7.66411683,7.45059986 L7.69993046,7.26887791 C7.73574409,7.19618913 7.95062587,7.23253352 7.9864395,7.3052223 C7.95062587,7.81404375 7.95062587,8.21383204 7.95062587,8.6863091 L7.95062587,10.8669725 C7.95062587,11.6302047 7.95062587,12.3207481 7.9864395,12.4661256 C7.44923505,12.4661256 6.87621697,12.4661256 6.44645341,12.50247 C6.37482615,12.4661256 6.33901252,12.2844037 6.41063978,12.2117149 C6.94784423,12.1026817 7.37760779,11.9573042 7.52086231,11.3757939 C7.59248957,11.1213832 7.59248957,10.7215949 7.59248957,10.2127735 L7.59248957,9.48588567 C7.59248957,9.12244178 7.55667594,9.12244178 7.12691238,9.12244178 L4.65577191,9.12244178 C4.33344924,9.12244178 4.33344924,9.15878617 4.33344924,9.52223006 L4.33344924,10.3218066 C4.33344924,10.7942837 4.36926287,11.194072 4.4050765,11.3394495 C4.44089013,11.4848271 4.51251739,11.5575159 4.79902643,11.6302047 L5.26460362,11.7392378 C5.33623088,11.8119266 5.33623088,11.9936486 5.26460362,12.0663373 C4.97809458,12.0663373 4.51251739,12.0299929 4.08275382,12.0299929 C3.65299026,12.0299929 3.2232267,12.0663373 2.93671766,12.0663373 C2.8650904,12.0299929 2.8650904,11.848271 2.93671766,11.7392378 L3.40229485,11.6302047 C3.61717663,11.5575159 3.79624478,11.4848271 3.83205841,11.2304164 C3.86787204,11.0486944 3.90368567,10.7579393 3.90368567,10.3218066 L3.90368567,9.52223006 C3.90368567,9.15878617 3.90368567,9.12244178 3.581363,9.12244178 L1.93393602,9.12244178 C0.716272601,9.12244178 0.537204451,9.15878617 0.465577191,9.84932957 L0.429763561,10.2491179 C0.429763561,10.3944954 0.21488178,10.358151 0.17906815,10.2854622 Z M0.17906815,20.716302 C0.21488178,20.243825 0.21488178,19.8076923 0.21488178,19.2625265 C0.21488178,18.6810162 0.17906815,18.2448836 0.17906815,17.8814397 C0.21488178,17.7724065 0.429763561,17.7724065 0.465577191,17.8450953 L0.501390821,18.2085392 C0.537204451,18.4629499 0.608831711,18.6083275 0.716272601,18.6083275 C0.859527121,18.6083275 1.0744089,18.5356387 1.32510431,18.4629499 L2.93671766,17.9541284 C3.18741307,17.8814397 3.2232267,17.8087509 3.2232267,17.4816514 L3.2232267,15.6644319 C3.2232267,15.3736768 3.18741307,15.300988 2.93671766,15.2282992 L1.71905424,14.8285109 C1.18184979,14.646789 0.859527121,14.5741002 0.752086231,14.5741002 C0.608831711,14.5741002 0.537204451,14.646789 0.501390821,14.9375441 L0.465577191,15.3373324 C0.39394993,15.4100212 0.21488178,15.4100212 0.17906815,15.300988 C0.21488178,14.9738885 0.21488178,14.6104446 0.21488178,14.0652788 C0.21488178,13.6654905 0.17906815,13.2293578 0.17906815,12.9022583 C0.21488178,12.8295695 0.429763561,12.7932251 0.465577191,12.8659139 L0.501390821,13.2657022 C0.537204451,13.5564573 0.644645341,13.810868 1.0744089,13.99259 C1.61161335,14.2106563 2.36369958,14.5377558 3.68880389,15.0465773 L6.87621697,16.2459421 C7.30598053,16.4276641 7.52086231,16.5003529 7.69993046,16.4640085 C7.77155772,16.7547636 7.9864395,16.9364855 8.12969402,17.0818631 C8.12969402,17.1545519 8.09388039,17.2272406 8.02225313,17.263585 C7.52086231,17.4089626 6.94784423,17.6270289 6.44645341,17.7724065 L1.71905424,19.407904 C0.716272601,19.7713479 0.537204451,19.9167255 0.465577191,20.4255469 L0.429763561,20.7526464 C0.429763561,20.8253352 0.25069541,20.7889908 0.17906815,20.716302 Z M3.72461752,17.3362738 C3.72461752,17.6997177 3.76043115,17.6997177 4.08275382,17.5906845 L6.01668985,16.9364855 C6.30319889,16.8274524 6.62552156,16.7184192 6.76877608,16.6457304 L6.76877608,16.609386 C6.69714882,16.5730416 6.41063978,16.4640085 6.08831711,16.3186309 L4.04694019,15.5553987 C3.76043115,15.4463656 3.76043115,15.48271 3.76043115,15.8098095 L3.76043115,17.3362738 L3.72461752,17.3362738 Z M4.90646732,25.1139732 L1.7906815,27.8761468 C0.608831711,28.9301341 0.21488178,29.2572336 0,29.4026112 C0,29.5479887 0.0716272601,29.6206775 0.14325452,29.6206775 C0.465577191,29.5843331 1.86230876,29.5843331 2.18463143,29.5843331 L4.97809458,29.5843331 C5.51529903,29.5843331 6.98365786,29.5479887 7.41342142,29.766055 C7.52086231,29.8023994 7.59248957,30.0568102 7.66411683,30.4202541 L7.69993046,30.601976 C7.77155772,30.6746648 7.95062587,30.6746648 7.9864395,30.5656316 C7.95062587,30.1658433 7.95062587,29.8387438 7.95062587,29.3299224 C7.95062587,28.8937897 7.95062587,28.457657 7.9864395,27.9124912 C7.95062587,27.803458 7.77155772,27.803458 7.69993046,27.8761468 L7.66411683,28.0942131 C7.59248957,28.5666902 7.52086231,28.7484121 7.41342142,28.8211009 C7.05528512,29.0391673 5.51529903,29.0755116 4.97809458,29.0755116 L2.47114047,29.0755116 C2.22044506,29.0755116 2.04137691,29.0755116 1.96974965,29.0391673 L1.96974965,29.0391673 C2.54276773,28.4940014 3.18741307,27.8761468 4.08275382,27.0765702 L5.37204451,25.9135498 C5.80180807,25.5137615 7.34179416,24.0963303 7.95062587,23.8782639 C7.91481224,23.7328864 7.91481224,23.51482 7.91481224,23.3330981 C7.91481224,23.1150318 7.91481224,22.4971771 7.95062587,21.9883557 C7.91481224,21.8793225 7.73574409,21.8793225 7.66411683,21.9520113 L7.6283032,22.1700776 C7.59248957,22.4608327 7.52086231,22.7515879 7.34179416,22.8969654 C7.05528512,23.1513761 6.84040334,23.1513761 6.48226704,23.1513761 L3.07997218,23.1513761 C2.5069541,23.1513761 1.0744089,23.1513761 0.644645341,23.0059986 C0.501390821,22.9333098 0.429763561,22.7515879 0.39394993,22.4971771 L0.3581363,22.1700776 C0.28650904,22.0973888 0.10744089,22.0973888 0.0716272601,22.206422 C0.10744089,22.6062103 0.10744089,22.9333098 0.10744089,23.4421313 C0.10744089,23.8782639 0.10744089,24.3143966 0.0716272601,24.8232181 C0.14325452,24.8959068 0.28650904,24.9322512 0.3581363,24.8595625 L0.39394993,24.4961186 C0.429763561,24.2053634 0.501390821,23.9509527 0.608831711,23.8782639 C0.966968011,23.6601976 2.5069541,23.6601976 3.04415855,23.6601976 L5.73018081,23.6601976 C6.08831711,23.6601976 6.33901252,23.6601976 6.48226704,23.7328864 L6.48226704,23.7692308 C6.23157163,23.9872971 5.26460362,24.7868737 4.90646732,25.1139732 Z M2.22044506,36.6351447 C3.33066759,36.6351447 4.01112656,35.9082569 4.47670376,35.1450247 L5.04972184,34.2000706 C5.33623088,33.7639379 5.80180807,33.1824277 6.48226704,33.1824277 C7.01947149,33.1824277 7.77155772,33.4368384 7.77155772,34.5998589 C7.77155772,35.7628793 7.01947149,36.0536344 6.44645341,36.2353564 C6.37482615,36.3080452 6.41063978,36.4897671 6.48226704,36.5261115 C6.98365786,36.5261115 7.6283032,36.4170783 7.91481224,36.3080452 C7.91481224,36.199012 7.95062587,36.0536344 7.9864395,35.9082569 C8.05806676,35.5811574 8.12969402,35.1813691 8.12969402,34.7815808 C8.12969402,33.2187721 7.23435327,32.3465067 6.12413074,32.3465067 C5.15716273,32.3465067 4.47670376,33.0370501 4.11856745,33.6185603 L3.40229485,34.7452364 C2.8650904,35.6175018 2.25625869,35.7265349 1.75486787,35.7265349 C1.03859527,35.7265349 0.39394993,35.2540579 0.39394993,34.236415 C0.39394993,32.8553282 1.53998609,32.3465067 2.1488178,32.2011291 C2.22044506,32.1647848 2.18463143,31.9830628 2.11300417,31.910374 C1.57579972,31.9467184 0.716272601,32.092096 0.465577191,32.2374735 C0.32232267,32.4555399 0.03581363,33.1097389 0.03581363,34.0910374 C0.03581363,35.6538462 0.931154381,36.6351447 2.22044506,36.6351447 Z M0.03581363,46.5935074 C0.03581363,43.940367 1.89812239,42.3412138 4.01112656,42.3412138 C6.37482615,42.3412138 8.16550765,44.1220889 8.16550765,46.5935074 C8.16550765,49.355681 6.195758,50.7367678 4.11856745,50.7367678 C1.75486787,50.7367678 0.03581363,48.883204 0.03581363,46.5935074 Z M0.39394993,46.738885 C0.39394993,48.1563162 1.46835883,49.537403 3.76043115,49.537403 C5.69436718,49.537403 7.80737135,48.6651376 7.80737135,46.3754411 C7.80737135,45.1397318 6.98365786,43.5405787 4.4050765,43.5405787 C2.65020862,43.5405787 0.39394993,44.3764996 0.39394993,46.738885 Z M5.30041725,57.097036 C5.37204451,57.0606916 5.37204451,56.8426253 5.30041725,56.7699365 L4.83484006,56.6609033 C4.51251739,56.5882145 4.47670376,56.4791814 4.44089013,56.3701482 C4.4050765,56.2247706 4.36926287,55.8613267 4.36926287,55.3525053 L4.36926287,54.5529287 C4.36926287,54.1894848 4.36926287,54.1531404 4.69158554,54.1531404 L7.16272601,54.1531404 C7.59248957,54.1531404 7.6283032,54.1531404 7.6283032,54.5165843 L7.6283032,55.2434721 C7.6283032,55.7522936 7.6283032,56.1520819 7.55667594,56.4064926 C7.41342142,56.9880028 6.98365786,57.1333804 6.44645341,57.2424135 C6.37482615,57.3151023 6.41063978,57.4968243 6.48226704,57.5331687 C6.9120306,57.4968243 7.48504868,57.4968243 8.02225313,57.4968243 C7.9864395,57.3514467 7.9864395,56.6609033 7.9864395,55.8976711 L7.9864395,53.7170078 C7.9864395,53.2445307 7.9864395,52.8447424 8.02225313,52.335921 C7.9864395,52.2632322 7.77155772,52.2268878 7.73574409,52.2995766 L7.69993046,52.4812985 C7.6283032,53.1718419 7.44923505,53.2081863 6.23157163,53.2081863 L2.00556328,53.2081863 C0.787899861,53.2081863 0.608831711,53.1718419 0.537204451,52.4812985 L0.501390821,52.1905434 C0.429763561,52.1178546 0.25069541,52.154199 0.21488178,52.2268878 C0.25069541,52.7720536 0.25069541,53.2081863 0.25069541,53.7170078 C0.25069541,54.1894848 0.25069541,54.5892731 0.21488178,55.3161609 C0.25069541,55.3888497 0.465577191,55.4251941 0.501390821,55.3525053 L0.537204451,54.952717 C0.608831711,54.2621736 0.787899861,54.2258292 2.00556328,54.2258292 L3.65299026,54.2258292 C3.97531293,54.2258292 3.97531293,54.2621736 3.97531293,54.6256175 L3.97531293,55.4251941 C3.97531293,55.8613267 3.97531293,56.1884263 3.90368567,56.3338038 C3.83205841,56.5518701 3.65299026,56.6609033 3.47392211,56.7335921 L3.00834492,56.8426253 C2.93671766,56.915314 2.93671766,57.097036 3.00834492,57.1697248 C3.29485396,57.1697248 3.72461752,57.1333804 4.15438108,57.1333804 C4.54833102,57.0606916 5.01390821,57.097036 5.30041725,57.097036 Z M103,69.2360621 C103,73.4883557 102.2121,77.6316161 100.600487,81.6658433 C98.9888734,85.7000706 96.7684284,89.3345095 93.9749652,92.460127 C91.1815021,95.6220889 87.8866481,98.1661962 84.0904033,100.092449 C80.2941586,102.018701 76.2472184,103 71.8779555,103 C67.4012517,103 63.2468707,102.055046 59.4506259,100.201482 C55.6185675,98.3115737 52.3237135,95.8401553 49.566064,92.7145378 C46.8084145,89.5889203 44.623783,85.9908257 43.0837969,81.9202541 C41.5438108,77.8496824 40.755911,73.5973888 40.755911,69.2360621 C40.755911,64.4022583 41.6870654,59.895554 43.5851878,55.788638 C45.4833102,51.6817219 47.8828234,48.0836274 50.819541,45.067043 C53.147427,42.7046577 55.6901947,40.7057163 58.4836579,39.1429076 L58.4836579,1.81721948 L58.3045897,1.81721948 L36.9238526,64.7657022 L15.5789291,2.4350741 L15.3998609,2.4350741 L15.3998609,63.3846154 L25.3202364,63.3846154 L25.3202364,64.656669 L4.11856745,64.656669 L4.11856745,63.3846154 L14.038943,63.3846154 L14.038943,1.27205363 L4.11856745,1.27205363 L4.11856745,0 L24.2458275,0 L40.7917246,48.8468596 L40.9707928,48.8468596 L57.5166898,0 L77.2858136,0 L77.2858136,1.27205363 L67.3654381,1.27205363 L67.3654381,35.7992237 C68.8696106,35.5084686 70.3379694,35.363091 71.8421419,35.363091 C75.7816412,35.363091 79.6136996,36.2353564 83.3383171,37.9435427 C87.0629346,39.651729 90.3936022,42.0504587 93.3303199,45.067043 C96.2670376,48.0836274 98.5949235,51.6817219 100.349791,55.788638 C102.104659,59.895554 103,64.4022583 103,69.2360621 Z M51.786509,57.097036 C51.5,59.1323218 51.2851182,61.2402964 51.1776773,63.348271 L58.4120306,63.348271 L58.4120306,41.6506704 C57.015299,43.0681016 55.8334492,44.7399435 54.8664812,46.6298518 C53.3623088,49.7191249 52.3237135,53.2081863 51.786509,57.097036 Z M92.6856745,69.2360621 C92.6856745,65.0564573 92.4349791,61.0222301 91.8977747,57.097036 C91.3605702,53.2081863 90.321975,49.7191249 88.8178025,46.6661962 C87.31363,43.6132675 85.1648122,41.1781934 82.47879,39.3609739 C79.7569541,37.5437544 76.2472184,36.6351447 71.8779555,36.6351447 C70.2663421,36.6351447 68.7979833,36.7441778 67.4012517,36.9985886 L67.4012517,63.3846154 L77.3216273,63.3846154 L77.3216273,64.656669 L51.1418637,64.656669 C51.0702364,66.1831334 51.0344228,67.7095977 51.0344228,69.2360621 C51.0344228,74.6877205 51.3925591,79.4488356 52.1088317,83.4830628 C52.8251043,87.5536344 54.0069541,90.9336627 55.6901947,93.6594919 C57.3734353,96.3853211 59.5222531,98.4206069 62.1366481,99.7290049 C64.7510431,101.073747 68.0100834,101.727946 71.8779555,101.727946 C75.7100139,101.727946 78.9332406,101.073747 81.5834492,99.7290049 C84.2336579,98.3842625 86.4182893,96.3853211 88.0657163,93.6594919 C89.7489569,90.9336627 90.9308067,87.5536344 91.6470793,83.4830628 C92.3275382,79.4488356 92.6856745,74.6877205 92.6856745,69.2360621 Z M20.3421419,81.4114326 C20.1988873,81.4114326 20.0198192,81.4114326 19.8765647,81.447777 L20.2705146,85.0822159 L20.4137691,85.0822159 L20.7719054,81.4114326 C20.6286509,81.4114326 20.4853964,81.4114326 20.3421419,81.4114326 Z M19.8765647,81.1206775 C20.0556328,81.1206775 20.1988873,81.0843331 20.3779555,81.0843331 C20.52121,81.0843331 20.7002782,81.0843331 20.8435327,81.1206775 L21.9537552,69.7448836 L18.6589013,69.3087509 L19.8765647,81.1206775 Z M21.5598053,81.5568102 C21.4165508,81.5204658 21.2732962,81.4841214 21.0942281,81.4841214 L20.7360918,85.1185603 L20.8793463,85.1549047 L21.9895688,81.6658433 C21.8463143,81.5931546 21.7030598,81.5568102 21.5598053,81.5568102 Z M21.1300417,81.1570219 C21.2732962,81.1933663 21.4523644,81.1933663 21.5956189,81.2297107 C21.7388734,81.266055 21.882128,81.3023994 22.0611961,81.3387438 L25.463491,70.435427 L22.3118915,69.3087509 L21.1300417,81.1570219 Z M19.1602921,81.5568102 C19.0170376,81.5931546 18.873783,81.6294989 18.7305285,81.6658433 L19.8765647,85.1549047 L20.0198192,85.1185603 L19.6258693,81.4841214 C19.4468011,81.4841214 19.3035466,81.5204658 19.1602921,81.5568102 Z M14.9342837,70.0719831 L18.6230876,81.3750882 C18.7663421,81.3387438 18.9454103,81.3023994 19.0886648,81.266055 C19.2319193,81.2297107 19.4109875,81.1933663 19.554242,81.1933663 L18.2649513,69.8539167 L14.9342837,70.0719831 Z M17.9784423,81.9202541 C17.8351878,81.9929428 17.6919332,82.0656316 17.5844924,82.1383204 L19.4109875,85.3002823 L19.554242,85.2275935 L18.4082058,81.7385321 C18.2649513,81.8112209 18.1216968,81.8475653 17.9784423,81.9202541 Z M11.5319889,71.5984474 L17.4412378,81.8839097 C17.5844924,81.8112209 17.7277469,81.7385321 17.8710014,81.6658433 C18.0142559,81.5931546 18.1575104,81.5568102 18.300765,81.4841214 L14.7194019,70.6534933 L11.5319889,71.5984474 Z M16.939847,82.5381087 C16.8324061,82.6471418 16.6891516,82.7198306 16.5817107,82.8288638 L19.0170376,85.554693 L19.1602921,85.4456598 L17.3337969,82.283698 C17.1905424,82.3563867 17.0472879,82.4654199 16.939847,82.5381087 Z M8.48783032,73.8154552 L16.3668289,82.6107975 C16.4742698,82.5017643 16.6175243,82.3927311 16.7607789,82.283698 C16.9040334,82.1746648 17.0114743,82.101976 17.1547288,82.0292872 L11.424548,72.1799577 L8.48783032,73.8154552 Z M16.0445063,83.3740296 C15.9370654,83.4830628 15.8296245,83.592096 15.7579972,83.7374735 L18.6947149,85.8817925 L18.8021558,85.7727594 L16.3668289,83.0832745 C16.259388,83.1559633 16.1519471,83.2649965 16.0445063,83.3740296 Z M15.5073018,83.5557516 C15.6147427,83.410374 15.7221836,83.3013409 15.8296245,83.1559633 C15.9370654,83.0469301 16.0445063,82.937897 16.1519471,82.8288638 L8.52364395,74.4333098 L5.98087622,76.6503176 L15.5073018,83.5557516 Z M15.3282337,84.3553282 C15.2566064,84.5007057 15.1849791,84.6460833 15.1133519,84.7551164 L18.4440195,86.208892 L18.5156467,86.0635145 L15.5789291,83.9555399 C15.4714882,84.1009174 15.3998609,84.246295 15.3282337,84.3553282 Z M6.12413074,77.2318278 L4.11856745,79.9213126 L14.8626565,84.6824277 C14.9342837,84.5370501 15.005911,84.3916725 15.0775382,84.246295 C15.1491655,84.1009174 15.2207928,83.9918843 15.3282337,83.8465067 L6.12413074,77.2318278 Z M22.7058414,81.9202541 C22.5625869,81.8475653 22.4193324,81.8112209 22.2760779,81.7385321 L21.1658554,85.2275935 L21.3091099,85.3002823 L23.0997914,82.101976 C22.9565369,82.0656316 22.849096,81.9929428 22.7058414,81.9202541 Z M22.3835188,81.447777 C22.5267733,81.5204658 22.6700278,81.5568102 22.849096,81.6294989 C22.9923505,81.7021877 23.135605,81.7748765 23.2788595,81.8475653 L28.8657858,71.9255469 L26.036509,70.1446718 L22.3835188,81.447777 Z M23.7444367,82.5381087 C23.6369958,82.4290755 23.4937413,82.3563867 23.3504868,82.283698 L21.5239917,85.4456598 L21.6672462,85.554693 L24.0667594,82.8288638 C23.9951321,82.7198306 23.8876912,82.6471418 23.7444367,82.5381087 Z M23.5295549,82.0292872 C23.6728095,82.101976 23.816064,82.2110092 23.9235049,82.3200423 C24.0667594,82.4290755 24.1742003,82.5017643 24.2816412,82.6107975 L31.8025035,74.1062103 L29.4029903,71.7801694 L23.5295549,82.0292872 Z M24.6397775,83.3740296 C24.5323366,83.2649965 24.4248957,83.1559633 24.3174548,83.0469301 L21.882128,85.7727594 L21.9895688,85.8817925 L24.9262865,83.7011291 C24.8546592,83.592096 24.7472184,83.4830628 24.6397775,83.3740296 Z M25.1769819,83.5194072 L34.2736439,76.7956951 L32.4113352,73.9971771 L24.5323366,82.8288638 C24.6397775,82.937897 24.7472184,83.0469301 24.8904729,83.1923077 C24.9621001,83.3013409 25.069541,83.410374 25.1769819,83.5194072 Z M25.1053547,83.9918843 L22.168637,86.1362032 L22.2402643,86.2815808 L25.5351182,84.7914608 C25.463491,84.6460833 25.3918637,84.5370501 25.3202364,84.3916725 C25.2844228,84.246295 25.2127955,84.1009174 25.1053547,83.9918843 Z M25.3560501,83.8101623 C25.463491,83.9555399 25.5351182,84.1009174 25.6067455,84.246295 C25.6783727,84.3916725 25.75,84.5370501 25.8216273,84.6824277 L36.1001391,80.0303458 L34.846662,76.9047283 L25.3560501,83.8101623 Z" id="Shape"></path>
                </g>
            </g>
        </g>
    </g>
</svg>