<svg xmlns="http://www.w3.org/2000/svg" xmlns:xlink="http://www.w3.org/1999/xlink" width="176.4" height="138.606" viewBox="0 0 176.4 138.606"><path fill="#FFF" d="M0 120.907h176.399v-.809H0v.809zm0-21.791v.809l176.397-.001v-.808H0z"/><defs><path id="a" d="M0 0h176.4v138.606H0z"/></defs><clipPath id="b"><use xlink:href="#a" overflow="visible"/></clipPath><path clip-path="url(#b)" fill="#FFF" d="M121.824 130.289c0-1.521-.013-1.711-.646-1.79l-.351-.048c-.094-.111-.094-.364.015-.444.848-.095 1.992-.142 3.097-.142 1.05 0 1.966.158 2.559.538.688.429 1.185 1.173 1.185 2.313 0 1.458-.955 2.188-1.615 2.504-.081.049-.055.175 0 .27 1.077 2.139 1.751 3.486 2.383 4.104.377.38.562.363.724.38.066.063.005.428.005.428l-2.298.003s-.356-.525-1.177-2c-.364-.665-.74-1.536-1.064-2.154-.242-.476-.391-.539-.835-.539-.403 0-.417.017-.417.35v2.027c0 1.68.12 1.728.754 1.822l.297.047c.093.112.08.397-.028.46a34.503 34.503 0 0 0-3.608 0c-.107-.062-.148-.348-.026-.46l.295-.047c.633-.095.754-.143.754-1.822v-5.8zm1.564 2.282c0 .507 0 .539.646.539 1.319 0 1.926-.761 1.926-2.266 0-1.253-.688-2.346-1.858-2.346-.7 0-.714.047-.714.776v3.297zM19.458 129.225c0-.665-.014-.697-.364-.697h-.754c-1.239 0-1.603.174-2.101 1.458-.094.095-.377.047-.431-.112a29.72 29.72 0 0 0 .526-2.392c.027-.047.08-.063.148-.063.054 0 .108.017.134.063.068.396.257.412 1.172.412h5.495c.659 0 .861-.048 1.023-.412.054-.032.108-.063.161-.063.081 0 .149.031.176.079-.135.649-.243 2.012-.202 2.521-.068.126-.297.157-.418.047-.175-1.236-.431-1.537-1.872-1.537h-.767c-.35 0-.364.032-.364.697v6.846c0 1.679.122 1.727.754 1.806l.485.063c.094.11.081.396-.027.46a47.423 47.423 0 0 0-1.98-.048c-.592 0-1.225.016-2.087.048-.108-.064-.121-.38-.027-.46l.566-.079c.632-.063.754-.111.754-1.79v-6.847zM29.656 133.281c-.687 0-.727.032-.727.46v2.329c0 1.681.121 1.728.754 1.808l.404.062c.094.111.081.396-.027.46a39.65 39.65 0 0 0-1.899-.048c-.592 0-1.198.015-1.71.048-.108-.063-.121-.349-.027-.46l.188-.032c.633-.11.755-.157.755-1.838v-5.895c0-1.68-.122-1.728-.755-1.822l-.296-.047c-.094-.08-.081-.396.027-.46a34.47 34.47 0 0 0 1.818.048c.593 0 1.199-.016 1.724-.048.108.063.121.38.027.46l-.229.047c-.633.095-.754.143-.754 1.822v1.918c0 .443.04.475.727.475h3.151c.687 0 .728-.031.728-.475v-1.918c0-1.68-.122-1.728-.755-1.822l-.296-.047c-.094-.08-.081-.396.027-.46.62.032 1.226.048 1.818.048.593 0 1.199-.016 1.737-.048.108.063.121.38.027.46l-.242.047c-.633.095-.755.143-.755 1.822v5.895c0 1.681.122 1.728.755 1.823l.296.047c.095.111.081.396-.027.46a32.416 32.416 0 0 0-1.791-.048c-.62 0-1.226.015-1.818.048-.108-.063-.121-.349-.027-.46l.296-.047c.633-.096.755-.143.755-1.823v-2.329c0-.428-.041-.46-.728-.46h-3.151zM39.585 130.175c0-1.68-.121-1.727-.754-1.838l-.216-.032c-.094-.11-.081-.396.028-.46.511.033 1.144.049 1.737.049h2.572c.862 0 1.643-.016 1.818-.049.054.271.134 1.522.215 2.203-.053.127-.323.159-.431.064-.215-.919-.417-1.316-.848-1.442-.31-.111-.714-.143-1.077-.143h-.903c-.578 0-.578.031-.578.935v2.678c0 .412.013.429.323.429h.646c1.172 0 1.4-.017 1.495-.698l.094-.538c.108-.111.363-.111.431.015-.014.429-.04.999-.04 1.585 0 .603.026 1.157.04 1.664-.068.111-.323.111-.431.017l-.094-.634c-.095-.666-.323-.697-1.495-.697h-.646c-.31 0-.323.031-.323.427v2.013c0 .809.026 1.378.228 1.648.162.222.391.349 1.522.349 1.71.031 2.006-.429 2.478-1.712.121-.109.35-.062.431.095-.081.666-.377 1.87-.566 2.299-.592-.032-1.75-.049-3.326-.049H40.38c-.593 0-1.414.017-2.02.049-.108-.064-.121-.35-.028-.46l.499-.063c.633-.079.754-.127.754-1.806v-5.898zM56.071 133.281c-.687 0-.727.032-.727.46v2.329c0 1.681.121 1.728.754 1.808l.404.062c.094.111.081.396-.027.46a39.65 39.65 0 0 0-1.899-.048c-.592 0-1.198.015-1.71.048-.108-.063-.121-.349-.027-.46l.188-.032c.633-.11.755-.157.755-1.838v-5.895c0-1.68-.122-1.728-.755-1.822l-.296-.047c-.094-.08-.08-.396.027-.46a34.47 34.47 0 0 0 1.818.048c.593 0 1.199-.016 1.724-.048.108.063.121.38.027.46l-.229.047c-.633.095-.754.143-.754 1.822v1.918c0 .443.04.475.727.475h3.151c.687 0 .728-.031.728-.475v-1.918c0-1.68-.122-1.728-.755-1.822l-.296-.047c-.094-.08-.08-.396.027-.46.62.032 1.226.048 1.818.048.593 0 1.199-.016 1.737-.048.108.063.122.38.027.46l-.242.047c-.633.095-.755.143-.755 1.822v5.895c0 1.681.122 1.728.755 1.823l.296.047c.095.111.081.396-.027.46a32.416 32.416 0 0 0-1.791-.048c-.62 0-1.225.015-1.818.048-.107-.063-.121-.349-.027-.46l.296-.047c.633-.096.755-.143.755-1.823v-2.329c0-.428-.041-.46-.728-.46h-3.151zM74.46 133.154c0 3.122-2.02 5.452-4.74 5.452-3.044 0-4.795-2.52-4.795-5.341 0-3.232 1.993-5.625 4.822-5.625 3.11 0 4.713 2.63 4.713 5.514m-7.703-.348c0 2.186.794 5.166 3.097 5.166 1.535 0 2.775-1.348 2.775-4.532 0-2.393-.916-5.166-3.058-5.166-1.346 0-2.814 1.157-2.814 4.532M79.707 129.225c0-.665-.014-.697-.363-.697h-.755c-1.239 0-1.603.174-2.1 1.458-.095.095-.378.047-.431-.112a29.23 29.23 0 0 0 .525-2.392c.027-.047.08-.063.148-.063.053 0 .108.017.134.063.068.396.257.412 1.173.412h5.494c.659 0 .861-.048 1.023-.412.054-.032.108-.063.162-.063.081 0 .148.031.175.079-.135.649-.242 2.012-.202 2.521-.067.126-.297.157-.418.047-.175-1.236-.431-1.537-1.872-1.537h-.767c-.35 0-.363.032-.363.697v6.846c0 1.679.12 1.727.754 1.806l.484.063c.094.11.081.396-.027.46a47.419 47.419 0 0 0-1.979-.048c-.592 0-1.226.016-2.088.048-.108-.064-.121-.38-.027-.46l.566-.079c.633-.063.754-.111.754-1.79v-6.847zM88.414 130.175c0-1.68-.121-1.727-.754-1.838l-.216-.032c-.094-.11-.081-.396.027-.46.512.033 1.146.049 1.737.049h2.573c.86 0 1.643-.016 1.817-.049.055.271.134 1.522.215 2.203-.053.127-.322.159-.431.064-.215-.919-.417-1.316-.848-1.442-.311-.111-.714-.143-1.077-.143h-.903c-.579 0-.579.031-.579.935v2.678c0 .412.015.429.323.429h.647c1.172 0 1.399-.017 1.494-.698l.095-.538c.106-.111.362-.111.431.015-.014.429-.041.999-.041 1.585 0 .603.027 1.157.041 1.664-.068.111-.324.111-.431.017l-.095-.634c-.095-.666-.322-.697-1.494-.697h-.647c-.309 0-.323.031-.323.427v2.013c0 .809.027 1.378.229 1.648.162.222.391.349 1.521.349 1.71.031 2.006-.429 2.479-1.712.121-.109.35-.062.431.095-.081.666-.378 1.87-.565 2.299-.593-.032-1.751-.049-3.326-.049h-1.536c-.592 0-1.413.017-2.019.049-.108-.064-.121-.35-.028-.46l.499-.063c.633-.079.754-.127.754-1.806v-5.898zM99.691 135.738c0 .792.027 1.361.229 1.632.162.222.377.349 1.454.349 1.495 0 1.711-.08 2.33-1.712.135-.079.35-.031.418.095-.108.666-.404 1.87-.566 2.299-.564-.032-1.723-.049-3.232-.049h-1.399c-.688 0-1.361.017-1.926.049-.108-.064-.148-.38-.027-.46l.404-.079c.632-.096.755-.143.755-1.79v-5.896c0-1.647-.123-1.695-.755-1.806l-.377-.064c-.095-.079-.095-.396.026-.46.674.033 1.279.049 1.899.049.592 0 1.199-.016 1.791-.049.121.064.135.381.027.46l-.298.064c-.632.11-.754.158-.754 1.806v5.562zM117.669 136.704c0 .555.067.968.323 1.109.04.064.04.19-.014.238-.148 0-.391.048-.646.127-.835.221-1.845.428-2.612.428-1.616 0-3.139-.507-4.147-1.744-.795-.966-1.186-2.297-1.186-3.628s.391-2.694 1.239-3.724c.955-1.188 2.424-1.87 4.295-1.87.634 0 1.321.127 1.792.238.31.078.7.143.862.143.013.475.107 1.283.174 2.519-.066.158-.363.175-.43.032-.297-1.537-1.253-2.298-2.586-2.298-2.37 0-3.516 2.013-3.516 4.706 0 1.268.243 2.63.971 3.645a3.21 3.21 0 0 0 2.599 1.348c.646 0 1.037-.127 1.198-.365.081-.142.121-.428.121-.998v-.57c0-1.125-.014-1.221-.915-1.395l-.485-.095c-.094-.111-.094-.38.014-.46.525.031 1.172.048 2.101.048.605 0 1.064-.017 1.643-.048.135.08.148.349.027.46l-.242.048c-.499.079-.579.221-.579 1.188v.918zM140.256 133.154c0 3.122-2.02 5.452-4.74 5.452-3.044 0-4.794-2.52-4.794-5.341 0-3.232 1.992-5.625 4.821-5.625 3.111 0 4.713 2.63 4.713 5.514m-7.703-.348c0 2.186.795 5.166 3.097 5.166 1.535 0 2.775-1.348 2.775-4.532 0-2.393-.916-5.166-3.058-5.166-1.346 0-2.814 1.157-2.814 4.532M143.549 130.175c0-1.68-.12-1.727-.754-1.838l-.229-.048c-.095-.11-.081-.38.026-.444a32.593 32.593 0 0 0 3.542 0c.107.064.122.334.026.444l-.295.048c-.633.111-.754.158-.754 1.838v3.629c0 2.188.564 4.024 2.437 4.024 1.764 0 2.492-1.568 2.492-3.978v-1.98c0-1.188-.015-2.662-.257-3.121-.121-.238-.336-.349-.673-.412l-.271-.048c-.12-.11-.106-.396.028-.444.458.033.969.049 1.495.049.564 0 .929-.016 1.427-.049.108.08.135.334.027.444l-.296.08c-.257.062-.499.126-.594.38-.188.475-.188 1.87-.188 3.121v1.887c0 1.441-.189 2.772-.89 3.659-.7.888-1.711 1.189-2.639 1.189-1.267 0-2.156-.317-2.775-1.015-.605-.682-.889-1.791-.889-3.391v-4.024zM155.462 130.271c0-1.441-.013-1.681-.579-1.775l-.471-.063c-.095-.11-.095-.38.013-.443.943-.126 1.751-.144 2.976-.144 1.279 0 2.209.224 2.815.636.701.49 1.145 1.331 1.145 2.377 0 2.407-1.952 3.073-3.017 3.073-.121 0-.229 0-.337-.017-.094-.094-.107-.3-.04-.395 1.226-.286 1.67-1.331 1.67-2.632 0-1.282-.7-2.407-1.926-2.407-.673 0-.687.047-.687.665v6.925c0 1.679.121 1.727.754 1.806l.498.063c.081.11.067.396-.027.46-.793-.032-1.4-.049-1.992-.049s-1.199.017-1.737.049c-.107-.064-.122-.35-.026-.46l.215-.031c.634-.111.754-.159.754-1.838v-5.8zM11.528 114.852c.135.062.121.396-.027.459a30.17 30.17 0 0 0-1.643-.047c-.633 0-1.212.016-1.805.047-.107-.063-.161-.364-.027-.459l.364-.079c.539-.097.579-.223.579-1.3v-6.481h-.027c-.363.871-.552 1.346-.808 1.98l-1.158 2.789c-.458 1.108-1.131 2.867-1.374 3.611-.053.064-.256.064-.35 0-.229-.854-.808-2.408-1.117-3.2l-1.199-3.043a71.495 71.495 0 0 1-.781-2.138h-.027c-.027.776-.054 2.012-.081 2.677-.026.968-.054 2.377-.054 3.678 0 1.045.014 1.299.593 1.409l.444.096c.095.095.095.396-.013.459a21.563 21.563 0 0 0-2.855 0c-.121-.079-.121-.38-.041-.459l.229-.032c.647-.095.754-.333.835-1.299.108-.999.135-2.028.202-3.676.054-1.078.135-2.394.135-3.359 0-.745-.202-1.078-.727-1.173l-.458-.096c-.081-.111-.067-.411.054-.46.404.032.767.049 1.266.049.471 0 .942 0 1.441-.049.053.951.404 1.775.74 2.631l1.482 3.66c.107.27.457 1.062.633 1.427.215-.459.403-.903.7-1.648l1.266-3.042c.431-1.046.861-1.98 1.09-3.027.364.032.809.049 1.105.049.565 0 1.037-.017 1.414-.049.148.063.175.365.04.46l-.444.079c-.593.096-.727.364-.727 1.204 0 2.346.027 4.69.121 7.036.04 1.062.188 1.172.619 1.236l.391.08zM16.778 111.381c-.35 0-.337 0-.458.428l-.552 1.901c-.269.936-.216.982.283 1.062l.39.079c.095.111.081.396-.026.46-.432-.031-.876-.031-1.428-.048-.444 0-.862.017-1.333.048-.095-.079-.108-.317-.014-.46l.404-.079c.391-.062.539-.206.741-.729.162-.412.377-1.077.66-1.934l1.845-5.641c.175-.507.296-.887.255-1.157.472-.111.916-.76.943-.76.108 0 .175.048.229.127.216.713.391 1.458.606 2.17l1.939 6.64c.31 1.062.378 1.172 1.064 1.315l.202.047c.108.111.108.381.014.46a29.076 29.076 0 0 0-1.751-.048c-.579 0-1.172.033-1.643.048-.107-.079-.121-.364-.04-.46l.296-.047c.485-.063.525-.158.351-.84l-.633-2.155c-.136-.428-.176-.428-.553-.428h-1.791zm1.617-.713c.377 0 .431-.032.323-.412l-.565-1.901c-.229-.84-.31-1.141-.377-1.252h-.027c-.054.111-.162.507-.405 1.252l-.565 1.854c-.148.459-.108.459.215.459h1.401zM32.927 112.57c0 .475 0 2.425.04 2.789a.478.478 0 0 1-.457.222c-.216-.333-.606-.872-1.576-2.171l-3.152-4.23c-.875-1.157-1.306-1.76-1.534-1.997-.041 0-.041.175-.041 1.014v3.09c0 1.189.013 2.647.243 3.122.121.238.35.333.686.396l.297.048c.121.11.107.411-.027.459a25.082 25.082 0 0 0-1.536-.048c-.565 0-.929.017-1.4.048-.108-.079-.135-.349-.027-.459l.296-.08c.256-.047.498-.111.593-.364.175-.491.175-1.87.175-3.122v-3.755c0-1.236.013-1.489-.445-1.949-.148-.142-.525-.269-.714-.316l-.201-.048c-.095-.096-.081-.411.053-.46.512.063 1.253.049 1.59.049.282 0 .605-.017.929-.049.229.683 1.697 2.679 2.168 3.28l1.347 1.711c.565.73 1.818 2.409 1.952 2.504.041-.047.041-.127.041-.38v-3.09c0-1.188-.014-2.646-.256-3.122-.121-.237-.337-.333-.673-.396l-.31-.048c-.121-.111-.108-.411.027-.46.525.032 1.023.049 1.549.049.579 0 .929-.017 1.414-.049.107.079.134.349.027.46l-.31.079c-.256.048-.485.111-.58.364-.188.492-.188 1.87-.188 3.122v3.787zM37.898 107.182c0-1.521-.013-1.711-.646-1.807l-.282-.031c-.095-.079-.095-.364.013-.444.97-.095 2.047-.143 3.367-.143 1.279 0 2.195.127 3.178.539 1.616.697 2.761 2.377 2.761 4.737 0 1.76-.741 3.566-2.411 4.564-.956.57-2.114.761-3.339.761-.822 0-1.455-.096-1.953-.096-.512 0-1.118.017-1.711.048-.107-.064-.121-.349-.026-.459l.295-.048c.633-.096.754-.144.754-1.822v-5.799zm1.563 5.182c0 1.537.094 2.361 1.522 2.361 2.397 0 3.474-1.996 3.474-4.676 0-3.137-1.549-4.657-3.797-4.657-.566 0-.997.127-1.092.222-.093.095-.107.428-.107 1.173v5.577zM50.312 111.381c-.35 0-.337 0-.458.428l-.552 1.901c-.269.936-.216.982.283 1.062l.39.079c.095.111.081.396-.027.46-.431-.031-.875-.031-1.427-.048-.444 0-.862.017-1.333.048-.095-.079-.108-.317-.014-.46l.404-.079c.391-.062.539-.206.741-.729.162-.412.377-1.077.66-1.934l1.845-5.641c.175-.507.296-.887.255-1.157.472-.111.916-.76.943-.76.108 0 .175.048.229.127.216.713.391 1.458.606 2.17l1.939 6.64c.31 1.062.378 1.172 1.064 1.315l.202.047c.108.111.108.381.014.46a29.076 29.076 0 0 0-1.751-.048c-.579 0-1.172.033-1.643.048-.108-.079-.121-.364-.04-.46l.296-.047c.485-.063.525-.158.35-.84l-.633-2.155c-.135-.428-.175-.428-.552-.428h-1.791zm1.616-.713c.377 0 .431-.032.323-.412l-.565-1.901c-.229-.84-.31-1.141-.377-1.252h-.028c-.053.111-.161.507-.404 1.252l-.565 1.854c-.148.459-.108.459.215.459h1.401zM58.708 107.182c0-1.521-.014-1.711-.647-1.79l-.35-.048c-.094-.11-.094-.364.014-.444.848-.095 1.993-.142 3.097-.142 1.051 0 1.967.157 2.559.539.687.428 1.185 1.172 1.185 2.312 0 1.458-.956 2.188-1.616 2.503-.081.049-.053.175 0 .271 1.077 2.139 1.751 3.485 2.384 4.104.376.381.56.364.722.38.067.064.005.429.005.429l-2.297.003s-.356-.525-1.177-1.999c-.364-.666-.741-1.537-1.065-2.155-.242-.477-.39-.539-.835-.539-.403 0-.417.016-.417.349v2.028c0 1.679.121 1.727.754 1.822l.297.048c.093.111.08.395-.027.459a34.573 34.573 0 0 0-3.61 0c-.107-.064-.148-.348-.026-.459l.296-.048c.632-.096.754-.144.754-1.822v-5.801zm1.562 2.282c0 .507 0 .539.647.539 1.319 0 1.925-.762 1.925-2.267 0-1.252-.686-2.345-1.858-2.345-.7 0-.714.047-.714.775v3.298zM106.007 107.182c0-1.521-.014-1.711-.646-1.79l-.35-.048c-.095-.11-.095-.364.013-.444.849-.095 1.993-.142 3.098-.142 1.052 0 1.967.157 2.56.539.687.428 1.184 1.172 1.184 2.312 0 1.458-.955 2.188-1.615 2.503-.08.049-.055.175 0 .271 1.077 2.139 1.752 3.485 2.384 4.104.377.381.561.364.723.38.067.064.005.429.005.429l-2.298.003s-.356-.525-1.177-1.999c-.364-.666-.74-1.537-1.064-2.155-.242-.477-.39-.539-.835-.539-.402 0-.417.016-.417.349v2.028c0 1.679.12 1.727.754 1.822l.296.048c.095.111.081.395-.026.459a34.564 34.564 0 0 0-3.609 0c-.106-.064-.147-.348-.026-.459l.296-.048c.634-.096.754-.144.754-1.822v-5.801zm1.562 2.282c0 .507 0 .539.646.539 1.319 0 1.926-.762 1.926-2.267 0-1.252-.688-2.345-1.859-2.345-.698 0-.713.047-.713.775v3.298zM70.646 112.982c0 1.68.121 1.727.754 1.822l.297.048c.093.11.08.396-.028.459a34.503 34.503 0 0 0-3.608 0c-.108-.063-.122-.349-.027-.459l.295-.048c.634-.096.754-.143.754-1.822v-5.895c0-1.68-.12-1.728-.754-1.822l-.295-.048c-.095-.11-.081-.396.027-.46a33.664 33.664 0 0 0 3.608 0c.108.064.121.35.028.46l-.297.048c-.633.095-.754.143-.754 1.822v5.895zM83.608 112.57c0 .475 0 2.425.04 2.789a.479.479 0 0 1-.458.222c-.214-.333-.605-.872-1.575-2.171l-3.151-4.23c-.875-1.157-1.306-1.76-1.535-1.997-.041 0-.041.175-.041 1.014v3.09c0 1.189.013 2.647.243 3.122.121.238.35.333.686.396l.297.048c.121.11.107.411-.027.459a25.05 25.05 0 0 0-1.535-.048c-.566 0-.93.017-1.401.048-.108-.079-.135-.349-.027-.459l.296-.08c.256-.047.499-.111.593-.364.175-.491.175-1.87.175-3.122v-3.755c0-1.236.014-1.489-.445-1.949-.148-.142-.525-.269-.714-.316l-.201-.048c-.094-.096-.081-.411.054-.46.511.063 1.252.049 1.589.049.282 0 .606-.017.929-.049.229.683 1.697 2.679 2.168 3.28l1.347 1.711c.566.73 1.818 2.409 1.952 2.504.041-.047.041-.127.041-.38v-3.09c0-1.188-.013-2.646-.256-3.122-.121-.237-.337-.333-.673-.396l-.31-.048c-.121-.111-.108-.411.027-.46.525.032 1.023.049 1.549.049.579 0 .929-.017 1.414-.049.108.079.134.349.027.46l-.31.079c-.256.048-.485.111-.58.364-.188.492-.188 1.87-.188 3.122v3.787zM102.037 110.067c0 3.12-2.021 5.449-4.74 5.449-3.044 0-4.794-2.519-4.794-5.34 0-3.231 1.992-5.625 4.821-5.625 3.111 0 4.713 2.63 4.713 5.516m-7.703-.35c0 2.188.795 5.166 3.097 5.166 1.535 0 2.775-1.347 2.775-4.532 0-2.393-.916-5.166-3.059-5.166-1.345 0-2.813 1.157-2.813 4.532M119.023 112.982c0 1.68.122 1.727.754 1.822l.297.048c.094.11.08.396-.027.459a34.533 34.533 0 0 0-3.609 0c-.107-.063-.12-.349-.026-.459l.296-.048c.633-.096.755-.143.755-1.822v-5.895c0-1.68-.122-1.728-.755-1.822l-.296-.048c-.094-.11-.081-.396.026-.46a33.73 33.73 0 0 0 3.609 0c.107.064.121.35.027.46l-.297.048c-.632.095-.754.143-.754 1.822v5.895zM125.293 107.087c0-1.68-.121-1.728-.754-1.839l-.217-.031c-.094-.11-.079-.396.027-.46.512.032 1.146.048 1.738.048h2.572c.861 0 1.642-.016 1.817-.048.054.271.134 1.522.215 2.203-.053.127-.322.159-.431.064-.215-.921-.417-1.316-.848-1.442-.311-.112-.715-.143-1.077-.143h-.903c-.579 0-.579.03-.579.935v2.678c0 .412.015.427.324.427h.646c1.172 0 1.4-.015 1.494-.696l.096-.539c.107-.111.363-.111.431.016-.014.428-.04.999-.04 1.585 0 .603.026 1.157.04 1.664-.067.11-.323.11-.431.016l-.096-.634c-.094-.666-.322-.696-1.494-.696h-.646c-.31 0-.324.03-.324.427v2.013c0 .809.027 1.378.229 1.648.161.221.39.349 1.521.349 1.71.031 2.006-.429 2.479-1.712.121-.111.35-.064.431.095-.081.665-.377 1.87-.567 2.297-.592-.03-1.749-.047-3.324-.047h-1.535c-.593 0-1.414.017-2.021.047-.107-.062-.122-.348-.027-.459l.499-.062c.633-.08.754-.127.754-1.807v-5.897zM143.238 112.57c0 .475 0 2.425.041 2.789a.48.48 0 0 1-.457.222c-.217-.333-.607-.872-1.576-2.171l-3.152-4.23c-.875-1.157-1.306-1.76-1.535-1.997-.04 0-.04.175-.04 1.014v3.09c0 1.189.014 2.647.242 3.122.121.238.351.333.688.396l.296.048c.121.11.106.411-.027.459a25 25 0 0 0-1.535-.048c-.565 0-.93.017-1.399.048-.108-.079-.137-.349-.028-.459l.296-.08c.256-.047.499-.111.593-.364.176-.491.176-1.87.176-3.122v-3.755c0-1.236.014-1.489-.444-1.949-.149-.142-.526-.269-.715-.316l-.201-.048c-.094-.096-.081-.411.054-.46.512.063 1.253.049 1.589.049.283 0 .606-.017.93-.049.229.683 1.696 2.679 2.168 3.28l1.347 1.711c.565.73 1.818 2.409 1.953 2.504.04-.047.04-.127.04-.38v-3.09c0-1.188-.014-2.646-.256-3.122-.121-.237-.337-.333-.673-.396l-.311-.048c-.121-.111-.108-.411.027-.46.524.032 1.023.049 1.549.049.579 0 .929-.017 1.414-.049.107.079.135.349.026.46l-.31.079c-.255.048-.485.111-.579.364-.188.492-.188 1.87-.188 3.122v3.787zM150.921 106.136c0-.666-.014-.697-.362-.697h-.756c-1.238 0-1.602.175-2.1 1.458-.095.096-.377.048-.431-.111.229-.855.431-1.838.524-2.394.027-.046.08-.062.148-.062.054 0 .107.017.135.062.067.397.256.413 1.172.413h5.494c.66 0 .861-.048 1.023-.413.054-.03.107-.062.162-.062.08 0 .147.032.175.079-.136.649-.242 2.013-.202 2.52-.067.127-.297.159-.417.048-.175-1.235-.431-1.537-1.872-1.537h-.768c-.351 0-.364.031-.364.697v6.846c0 1.68.122 1.727.755 1.807l.484.062c.094.111.08.396-.027.46a49.213 49.213 0 0 0-1.979-.048c-.592 0-1.226.017-2.088.048-.106-.063-.121-.381-.025-.46l.564-.078c.633-.064.754-.111.754-1.791v-6.847zM160.662 111.381c-.351 0-.336 0-.457.428l-.554 1.901c-.269.936-.215.982.283 1.062l.392.079c.095.111.079.396-.027.46-.431-.031-.875-.031-1.427-.048-.444 0-.862.017-1.334.048-.095-.079-.107-.317-.014-.46l.404-.079c.39-.062.539-.206.741-.729.162-.412.376-1.077.659-1.934l1.845-5.641c.175-.507.297-.887.256-1.157.472-.111.916-.76.943-.76.106 0 .175.048.228.127.217.713.392 1.458.607 2.17l1.938 6.64c.311 1.062.377 1.172 1.064 1.315l.202.047c.107.111.107.381.014.46a29.1 29.1 0 0 0-1.751-.048c-.579 0-1.172.033-1.644.048-.107-.079-.121-.364-.04-.46l.297-.047c.483-.063.524-.158.35-.84l-.633-2.155c-.135-.428-.175-.428-.552-.428h-1.79zm1.616-.713c.377 0 .431-.032.322-.412l-.564-1.901c-.229-.84-.311-1.141-.378-1.252h-.026c-.054.111-.161.507-.404 1.252l-.565 1.854c-.147.459-.107.459.216.459h1.399zM171.885 112.649c0 .792.027 1.363.229 1.632.162.223.377.35 1.455.35 1.494 0 1.71-.08 2.329-1.712.135-.079.35-.031.418.095-.108.666-.404 1.87-.566 2.298-.565-.031-1.723-.048-3.231-.048h-1.401c-.686 0-1.36.017-1.925.048-.108-.063-.149-.38-.027-.46l.404-.079c.633-.095.754-.142.754-1.79v-5.895c0-1.648-.121-1.696-.754-1.807l-.377-.063c-.094-.079-.094-.396.025-.459.674.032 1.28.047 1.899.047.593 0 1.198-.015 1.791-.047.121.062.135.38.028.459l-.297.063c-.633.11-.755.158-.755 1.807v5.561zM91.906 65.847a31.365 31.365 0 0 0-4.922.009l2.128 19.826h.86l1.934-19.835zM92.062 64.199a32.805 32.805 0 0 0-5.254.011L79.897 0l18.198 2.422-6.033 61.777zM98.477 67.049a31.776 31.776 0 0 0-4.815-1.02l-2.063 19.833.84.18 6.038-18.993zM98.973 65.471a32.366 32.366 0 0 0-5.139-1.088L100.503.148l17.289 6.173-18.819 59.15zM85.23 66.044a31.724 31.724 0 0 0-4.811 1.038l6.228 18.941.839-.179-2.256-19.8zM85.038 64.4a32.32 32.32 0 0 0-5.136 1.11L59.716 4.165 78.02 2.727 85.038 64.4zM78.743 67.634a31.49 31.49 0 0 0-2.23.9c-.774.346-1.527.721-2.258 1.121l10.051 17.222.784-.352-6.347-18.891zM78.21 66.067a32.594 32.594 0 0 0-4.79 2.158L40.854 12.458l17.598-5.233L78.21 66.067zM72.731 70.544c-.676.42-1.34.868-1.993 1.347a31.413 31.413 0 0 0-1.973 1.568l13.429 14.739.693-.508-10.156-17.146zM71.883 69.124c-.721.445-1.429.922-2.123 1.431a32.015 32.015 0 0 0-2.11 1.683L24.142 24.511l16.114-8.797 31.627 53.41zM67.461 74.649a31.8 31.8 0 0 0-3.269 3.679l16.215 11.604.572-.642-13.518-14.641zM66.334 73.436a32.801 32.801 0 0 0-3.488 3.929L10.32 39.792 24.238 27.82l42.096 45.616zM63.166 79.763a31.651 31.651 0 0 0-2.427 4.282l18.283 7.958.425-.747-16.281-11.493zM61.811 78.813a32.809 32.809 0 0 0-2.59 4.572L0 57.626l11.107-14.617 50.704 35.804zM104.65 69.599a32.008 32.008 0 0 0-4.496-2.005l-6.165 18.963.784.351 9.877-17.309zM105.466 68.159a32.76 32.76 0 0 0-4.799-2.138L120.619 4.6l15.617 9.652-30.77 53.907zM110.153 73.383a31.1 31.1 0 0 0-1.885-1.491 30.86 30.86 0 0 0-2.092-1.408l-9.994 17.253.692.508 13.279-14.862zM111.252 72.146a32.048 32.048 0 0 0-2.005-1.592 31.85 31.85 0 0 0-2.241-1.503l32.356-55.89 13.253 12.704-41.363 46.281zM114.744 78.236a31.668 31.668 0 0 0-3.283-3.668L98.08 89.35l.572.642 16.092-11.756zM116.077 77.254a32.468 32.468 0 0 0-3.505-3.914L155.9 25.45l10.303 15.194-50.126 36.61zM118.218 83.94c-.34-.72-.709-1.432-1.108-2.134a32.43 32.43 0 0 0-1.334-2.14L99.6 91.325l.424.746 18.194-8.131zM119.728 83.259a32.728 32.728 0 0 0-2.61-4.56l52.384-37.77 6.898 17.013-56.672 25.317z"/></svg>