<?xml version="1.0" encoding="utf-8"?>
<!-- Generator: Adobe Illustrator 19.2.1, SVG Export Plug-In . SVG Version: 6.00 Build 0)  -->
<svg version="1.1" id="Layer_1" xmlns="http://www.w3.org/2000/svg" xmlns:xlink="http://www.w3.org/1999/xlink" x="0px" y="0px"
	 viewBox="0 0 459.3 283.3" style="enable-background:new 0 0 459.3 283.3;" xml:space="preserve">
<style type="text/css">
	.st0{stroke:#FFFFFF;stroke-width:2;}
	.st1{font-family:'BigCaslon-Medium';}
	.st2{font-size:43.6447px;}
	.st3{letter-spacing:1;}
	.st4{letter-spacing:-4;}
	.st5{letter-spacing:-3;}
	.st6{letter-spacing:2;}
	.st7{letter-spacing:-1;}
</style>
<path d="M237.3,91.5c2.2-1.6,5.3-2.5,9.5-2.6v-1.5h-32.4c-0.3,0.8-1.5,3.8-3.7,8.9c-2.2,5.1-5,11.5-8.4,19.2
	c-3.4,7.7-7.2,16.3-11.5,25.8c-4.3,9.5-8.6,19.1-13.1,28.7l-36.3-82.6h-32.4v1.5c1.2,0.2,2.7,0.5,4.4,1c1.7,0.5,3.3,1.2,4.9,2.2
	c1.5,1,2.8,2.4,3.9,4.2c1.1,1.8,1.7,4.1,1.8,6.9c0.1,2.9,0.2,5.4,0.2,7.4v5.9v5.8v7.4c0,6.8-0.1,13.1-0.2,19.1
	c-0.1,5.9-0.3,11.1-0.5,15.4c-0.1,5.2-0.5,9.5-1.1,13.1c-0.6,3.6-1.6,6.6-2.9,9c-1.3,2.4-3.1,4.3-5.3,5.7c-2.2,1.4-5.1,2.4-8.7,3.1
	v1.5h39.6v-1.5c-4.4-0.6-7.8-1.6-10.3-3c-2.5-1.4-4.3-3.2-5.5-5.6c-1.2-2.4-2-5.3-2.3-8.8c-0.3-3.5-0.5-7.6-0.5-12.4V146
	c0-5.6,0-10.9,0.1-15.9c0-5,0.1-10.1,0.2-15.2c0.1-5.1,0.1-11,0.1-17.7c0.5,1.1,1.4,3.2,2.8,6.4c1.4,3.1,3.1,7,5.2,11.7
	c2.1,4.7,4.5,10,7.1,16c2.6,6,5.5,12.4,8.5,19.2c3,6.8,6.2,14,9.3,21.3c3.2,7.4,6.4,14.8,9.6,22.3h0.9c0.2-0.6,0.7-1.8,1.5-3.7
	c0.8-1.9,1.7-3.9,2.6-6.2c0.9-2.3,1.8-4.5,2.7-6.7c0.9-2.2,1.6-3.8,2.1-4.8c3.3-7.5,6.4-14.4,9.2-20.6c2.8-6.2,5.5-12.3,8.3-18.3
	c2.7-6,5.5-12.1,8.3-18.4c2.8-6.3,5.8-13.2,9.2-20.7v43v18.8c0,6.1-0.1,12.5-0.3,19.1c-0.1,2-0.3,4-0.6,6c-0.3,2-0.8,3.6-1.4,4.9
	c-1,2.1-3,4-5.9,5.6c-2.9,1.6-6.6,2.5-10.9,2.7v1.7h52.1v-1.5c-2.4-0.1-4.6-0.5-6.4-1.1c-1.8-0.7-3.3-1.4-4.6-2.3
	c-1.2-0.9-2.2-1.7-2.8-2.4c-0.7-0.8-1-1.2-1.1-1.4c-0.6-1.1-1-2.7-1.3-4.6c-0.3-2-0.4-3.9-0.4-5.8c-0.1-6-0.2-11.6-0.2-17V144v-13.8
	c0-4.6,0-9.3,0.2-14.1c0.1-3.5,0.3-7.1,0.5-10.8c0.2-3.6,0.6-6.3,1.2-8.1C233.7,95,235.2,93.1,237.3,91.5"/>
<path d="M349.7,120.3c-2.5-6.7-6.2-12.6-10.9-17.7c-4.8-5.1-10.6-9.2-17.4-12.2c-6.8-3-14.6-4.6-23.2-4.6c-7.9,0-15.4,1.3-22.6,3.9
	c-7.1,2.6-13.4,6.3-18.7,11.1c-5.3,4.8-9.5,10.7-12.7,17.6c-3.1,6.9-4.7,14.8-4.7,23.5c0,8.2,1.5,15.7,4.5,22.6
	c3,6.8,7.1,12.7,12.2,17.6c5.2,4.9,11.2,8.7,18.1,11.4c6.9,2.7,14.2,4,21.9,4c7.8,0,15.2-1.4,22.1-4.1c6.9-2.7,13-6.6,18.2-11.7
	c5.2-5.1,9.3-11,12.4-17.9c3-6.9,4.6-14.4,4.6-22.5C353.5,134,352.2,127,349.7,120.3z M332.3,160.6c-1.6,6.4-3.9,12.1-7.1,17.2
	c-3.1,5.1-7.1,9.3-11.8,12.5c-4.7,3.2-10.3,4.9-16.6,4.9c-6.4,0-12-1.5-16.8-4.4c-4.8-2.9-8.8-6.8-12-11.7
	c-3.2-4.9-5.6-10.5-7.2-16.9c-1.6-6.4-2.4-13-2.4-19.9c0-6.6,0.7-13.1,2.2-19.5c1.5-6.4,3.7-12.2,6.8-17.2c3.1-5.1,7-9.2,11.8-12.4
	c4.8-3.2,10.5-4.8,17.1-4.8c6.5,0,12.1,1.6,16.9,4.8c4.8,3.2,8.7,7.3,11.9,12.5c3.2,5.1,5.6,10.8,7.1,17.1
	c1.6,6.3,2.4,12.5,2.4,18.7C334.6,147.8,333.9,154.2,332.3,160.6z"/>
<g>
	<g id="Layer_1_1_">
		<g>
			<path d="M297.5,140.9c-0.2,0-0.5,0-0.7,0c-0.3,0-0.5,0-0.8,0l0.7,6.1h0.3L297.5,140.9L297.5,140.9z"/>
			<path d="M297.6,140.4c-0.3,0-0.5,0-0.8,0c-0.3,0-0.6,0-0.8,0l-2.1-19.7l5.6,0.7L297.6,140.4L297.6,140.4z"/>
			<path d="M299.5,141.3c-0.2-0.1-0.5-0.1-0.7-0.2c-0.2-0.1-0.5-0.1-0.8-0.1l-0.6,6.1l0.3,0.1L299.5,141.3L299.5,141.3z"/>
			<path d="M299.7,140.8c-0.2-0.1-0.5-0.1-0.8-0.2c-0.3-0.1-0.5-0.1-0.8-0.1l2.1-19.8l5.3,1.9L299.7,140.8L299.7,140.8z"/>
			<path d="M295.5,140.9c-0.2,0-0.5,0.1-0.7,0.1c-0.2,0.1-0.5,0.1-0.7,0.2l1.9,5.8l0.3-0.1L295.5,140.9L295.5,140.9z"/>
			<path d="M295.4,140.4c-0.3,0-0.5,0.1-0.8,0.1c-0.3,0.1-0.5,0.1-0.8,0.2l-6.2-18.9l5.6-0.4L295.4,140.4L295.4,140.4z"/>
			<path d="M293.5,141.4c-0.2,0.1-0.5,0.2-0.7,0.3c-0.2,0.1-0.5,0.2-0.7,0.3l3.1,5.3l0.2-0.1L293.5,141.4L293.5,141.4z"/>
			<path d="M293.3,140.9c-0.2,0.1-0.5,0.2-0.7,0.3c-0.2,0.1-0.5,0.2-0.7,0.4l-10-17.1l5.4-1.6L293.3,140.9L293.3,140.9z"/>
			<path d="M291.6,142.3c-0.2,0.1-0.4,0.3-0.6,0.4c-0.2,0.2-0.4,0.3-0.6,0.5l4.1,4.5l0.2-0.2L291.6,142.3L291.6,142.3z"/>
			<path d="M291.4,141.9c-0.2,0.1-0.4,0.3-0.7,0.4c-0.2,0.2-0.4,0.3-0.6,0.5l-13.4-14.7l5-2.7L291.4,141.9L291.4,141.9z"/>
			<path d="M290,143.6c-0.2,0.2-0.4,0.4-0.5,0.5c-0.2,0.2-0.3,0.4-0.5,0.6l5,3.6l0.2-0.2L290,143.6L290,143.6z"/>
			<path d="M289.7,143.2c-0.2,0.2-0.4,0.4-0.5,0.6c-0.2,0.2-0.4,0.4-0.5,0.6l-16.2-11.6l4.3-3.7L289.7,143.2L289.7,143.2z"/>
			<path d="M288.7,145.2c-0.1,0.2-0.3,0.4-0.4,0.6c-0.1,0.2-0.2,0.5-0.4,0.7l5.6,2.4l0.1-0.2L288.7,145.2L288.7,145.2z"/>
			<path d="M288.3,144.9c-0.1,0.2-0.3,0.4-0.4,0.7c-0.1,0.2-0.3,0.5-0.4,0.7l-18.2-7.9l3.4-4.5L288.3,144.9L288.3,144.9z"/>
			<path d="M301.4,142c-0.2-0.1-0.4-0.2-0.7-0.3c-0.2-0.1-0.5-0.2-0.7-0.3l-1.9,5.8l0.2,0.1L301.4,142L301.4,142z"/>
			<path d="M301.7,141.6c-0.2-0.1-0.5-0.2-0.7-0.4c-0.2-0.1-0.5-0.2-0.8-0.3l6.1-18.9l4.8,3L301.7,141.6L301.7,141.6z"/>
			<path d="M303.1,143.2c-0.2-0.2-0.4-0.3-0.6-0.5c-0.2-0.2-0.4-0.3-0.6-0.4l-3.1,5.3l0.2,0.2L303.1,143.2L303.1,143.2z"/>
			<path d="M303.5,142.8c-0.2-0.2-0.4-0.3-0.6-0.5c-0.2-0.2-0.5-0.3-0.7-0.5l10-17.2l4.1,3.9L303.5,142.8L303.5,142.8z"/>
			<path d="M304.5,144.7c-0.1-0.2-0.3-0.4-0.5-0.6c-0.2-0.2-0.4-0.4-0.5-0.6l-4.1,4.5l0.2,0.2L304.5,144.7L304.5,144.7z"/>
			<path d="M304.9,144.4c-0.2-0.2-0.3-0.4-0.5-0.6c-0.2-0.2-0.4-0.4-0.6-0.6l13.3-14.7l3.2,4.7L304.9,144.4L304.9,144.4z"/>
			<path d="M305.6,146.4c-0.1-0.2-0.2-0.4-0.3-0.7c-0.1-0.2-0.3-0.4-0.4-0.7l-5,3.6l0.1,0.2L305.6,146.4L305.6,146.4z"/>
			<path d="M306.1,146.2c-0.1-0.2-0.2-0.5-0.4-0.7c-0.1-0.2-0.3-0.5-0.4-0.7l16.1-11.6l2.1,5.2L306.1,146.2L306.1,146.2z"/>
		</g>
	</g>
	<g id="Layer_2">
		<path d="M306.7,160.7c0-0.5,0-0.5-0.2-0.6l-0.1,0c0,0,0-0.1,0-0.1c0.3,0,0.6,0,1,0c0.3,0,0.6,0,0.8,0.2c0.2,0.1,0.4,0.4,0.4,0.7
			c0,0.5-0.3,0.7-0.5,0.8c0,0,0,0.1,0,0.1c0.3,0.7,0.5,1.1,0.7,1.3c0.1,0.1,0.2,0.1,0.2,0.1c0,0,0,0.1,0,0.1h-0.7
			c0,0-0.1-0.2-0.4-0.6c-0.1-0.2-0.2-0.5-0.3-0.7c-0.1-0.1-0.1-0.2-0.3-0.2c-0.1,0-0.1,0-0.1,0.1v0.6c0,0.5,0,0.5,0.2,0.6l0.1,0
			c0,0,0,0.1,0,0.1c-0.2,0-0.4,0-0.6,0c-0.2,0-0.4,0-0.6,0c0,0,0-0.1,0-0.1l0.1,0c0.2,0,0.2,0,0.2-0.6L306.7,160.7L306.7,160.7z
			 M307.2,161.4c0,0.2,0,0.2,0.2,0.2c0.4,0,0.6-0.2,0.6-0.7c0-0.4-0.2-0.7-0.6-0.7c-0.2,0-0.2,0-0.2,0.2L307.2,161.4L307.2,161.4z"
			/>
		<path class="st0" d="M269.3,151.2h54.2 M269.3,157.7h54.2"/>
		<path d="M275.2,160.4c0-0.2,0-0.2-0.1-0.2h-0.2c-0.4,0-0.5,0.1-0.6,0.5c0,0-0.1,0-0.1,0c0.1-0.3,0.1-0.6,0.2-0.7c0,0,0,0,0,0
			c0,0,0,0,0,0c0,0.1,0.1,0.1,0.4,0.1h1.7c0.2,0,0.3,0,0.3-0.1c0,0,0,0,0,0c0,0,0,0,0.1,0c0,0.2-0.1,0.6-0.1,0.8c0,0-0.1,0-0.1,0
			c-0.1-0.4-0.1-0.5-0.6-0.5h-0.2c-0.1,0-0.1,0-0.1,0.2v2.1c0,0.5,0,0.5,0.2,0.6l0.1,0c0,0,0,0.1,0,0.1c-0.2,0-0.4,0-0.6,0
			s-0.4,0-0.6,0c0,0,0-0.1,0-0.1l0.2,0c0.2,0,0.2,0,0.2-0.6V160.4L275.2,160.4z"/>
		<path d="M278.4,161.6c-0.2,0-0.2,0-0.2,0.1v0.7c0,0.5,0,0.5,0.2,0.6l0.1,0c0,0,0,0.1,0,0.1c-0.2,0-0.4,0-0.6,0c-0.2,0-0.4,0-0.5,0
			c0,0,0-0.1,0-0.1l0.1,0c0.2,0,0.2,0,0.2-0.6v-1.8c0-0.5,0-0.5-0.2-0.6l-0.1,0c0,0,0-0.1,0-0.1c0.2,0,0.4,0,0.6,0
			c0.2,0,0.4,0,0.5,0c0,0,0,0.1,0,0.1l-0.1,0c-0.2,0-0.2,0-0.2,0.6v0.6c0,0.1,0,0.1,0.2,0.1h1c0.2,0,0.2,0,0.2-0.1v-0.6
			c0-0.5,0-0.5-0.2-0.6l-0.1,0c0,0,0-0.1,0-0.1c0.2,0,0.4,0,0.6,0c0.2,0,0.4,0,0.5,0c0,0,0,0.1,0,0.1l-0.1,0c-0.2,0-0.2,0-0.2,0.6
			v1.8c0,0.5,0,0.5,0.2,0.6l0.1,0c0,0,0,0.1,0,0.1c-0.2,0-0.4,0-0.6,0c-0.2,0-0.4,0-0.6,0c0,0,0-0.1,0-0.1l0.1,0
			c0.2,0,0.2,0,0.2-0.6v-0.7c0-0.1,0-0.1-0.2-0.1H278.4L278.4,161.6z"/>
		<path d="M281.4,160.7c0-0.5,0-0.5-0.2-0.6l-0.1,0c0,0,0-0.1,0-0.1c0.2,0,0.4,0,0.5,0h0.8c0.3,0,0.5,0,0.6,0c0,0.1,0,0.5,0.1,0.7
			c0,0-0.1,0-0.1,0c-0.1-0.3-0.1-0.4-0.3-0.4c-0.1,0-0.2,0-0.3,0h-0.3c-0.2,0-0.2,0-0.2,0.3v0.8c0,0.1,0,0.1,0.1,0.1h0.2
			c0.4,0,0.4,0,0.5-0.2l0-0.2c0,0,0.1,0,0.1,0c0,0.1,0,0.3,0,0.5c0,0.2,0,0.4,0,0.5c0,0-0.1,0-0.1,0l0-0.2c0-0.2-0.1-0.2-0.5-0.2
			H282c-0.1,0-0.1,0-0.1,0.1v0.6c0,0.2,0,0.4,0.1,0.5c0,0.1,0.1,0.1,0.5,0.1c0.5,0,0.6-0.1,0.8-0.5c0,0,0.1,0,0.1,0
			c0,0.2-0.1,0.6-0.2,0.7c-0.2,0-0.5,0-1,0h-0.5c-0.2,0-0.4,0-0.6,0c0,0,0-0.1,0-0.1l0.2,0c0.2,0,0.2,0,0.2-0.6V160.7L281.4,160.7z"
			/>
		<path d="M286.5,161.6c-0.2,0-0.2,0-0.2,0.1v0.7c0,0.5,0,0.5,0.2,0.6l0.1,0c0,0,0,0.1,0,0.1c-0.2,0-0.4,0-0.6,0c-0.2,0-0.4,0-0.5,0
			c0,0,0-0.1,0-0.1l0.1,0c0.2,0,0.2,0,0.2-0.6v-1.8c0-0.5,0-0.5-0.2-0.6l-0.1,0c0,0,0-0.1,0-0.1c0.2,0,0.4,0,0.6,0s0.4,0,0.5,0
			c0,0,0,0.1,0,0.1l-0.1,0c-0.2,0-0.2,0-0.2,0.6v0.6c0,0.1,0,0.1,0.2,0.1h1c0.2,0,0.2,0,0.2-0.1v-0.6c0-0.5,0-0.5-0.2-0.6l-0.1,0
			c0,0,0-0.1,0-0.1c0.2,0,0.4,0,0.6,0s0.4,0,0.5,0c0,0,0,0.1,0,0.1l-0.1,0c-0.2,0-0.2,0-0.2,0.6v1.8c0,0.5,0,0.5,0.2,0.6l0.1,0
			c0,0,0,0.1,0,0.1c-0.2,0-0.4,0-0.6,0c-0.2,0-0.4,0-0.6,0c0,0,0-0.1,0-0.1l0.1,0c0.2,0,0.2,0,0.2-0.6v-0.7c0-0.1,0-0.1-0.2-0.1
			H286.5L286.5,161.6z"/>
		<path d="M292.2,161.6c0,1-0.6,1.7-1.5,1.7c-0.9,0-1.5-0.8-1.5-1.6c0-1,0.6-1.7,1.5-1.7C291.7,159.9,292.2,160.7,292.2,161.6
			L292.2,161.6z M289.8,161.5c0,0.7,0.2,1.6,1,1.6c0.5,0,0.9-0.4,0.9-1.4c0-0.7-0.3-1.6-0.9-1.6
			C290.2,160.1,289.8,160.4,289.8,161.5L289.8,161.5z"/>
		<path d="M293.8,160.4c0-0.2,0-0.2-0.1-0.2h-0.2c-0.4,0-0.5,0.1-0.6,0.5c0,0-0.1,0-0.1,0c0.1-0.3,0.1-0.6,0.2-0.7c0,0,0,0,0,0
			c0,0,0,0,0,0c0,0.1,0.1,0.1,0.4,0.1h1.7c0.2,0,0.3,0,0.3-0.1c0,0,0,0,0,0c0,0,0,0,0.1,0c0,0.2-0.1,0.6-0.1,0.8c0,0-0.1,0-0.1,0
			c-0.1-0.4-0.1-0.5-0.6-0.5h-0.2c-0.1,0-0.1,0-0.1,0.2v2.1c0,0.5,0,0.5,0.2,0.6l0.1,0c0,0,0,0.1,0,0.1c-0.2,0-0.4,0-0.6,0
			c-0.2,0-0.4,0-0.6,0c0,0,0-0.1,0-0.1l0.2,0c0.2,0,0.2,0,0.2-0.6L293.8,160.4L293.8,160.4z"/>
		<path d="M296.4,160.7c0-0.5,0-0.5-0.2-0.6l-0.1,0c0,0,0-0.1,0-0.1c0.2,0,0.4,0,0.5,0h0.8c0.3,0,0.5,0,0.6,0c0,0.1,0,0.5,0.1,0.7
			c0,0-0.1,0-0.1,0c-0.1-0.3-0.1-0.4-0.3-0.4c-0.1,0-0.2,0-0.3,0h-0.3c-0.2,0-0.2,0-0.2,0.3v0.8c0,0.1,0,0.1,0.1,0.1h0.2
			c0.4,0,0.4,0,0.5-0.2l0-0.2c0,0,0.1,0,0.1,0c0,0.1,0,0.3,0,0.5c0,0.2,0,0.4,0,0.5c0,0-0.1,0-0.1,0l0-0.2c0-0.2-0.1-0.2-0.5-0.2
			H297c-0.1,0-0.1,0-0.1,0.1v0.6c0,0.2,0,0.4,0.1,0.5c0,0.1,0.1,0.1,0.5,0.1c0.5,0,0.6-0.1,0.8-0.5c0,0,0.1,0,0.1,0
			c0,0.2-0.1,0.6-0.2,0.7c-0.2,0-0.5,0-1,0h-0.5c-0.2,0-0.4,0-0.6,0c0,0,0-0.1,0-0.1l0.2,0c0.2,0,0.2,0,0.2-0.6V160.7L296.4,160.7z"
			/>
		<path d="M299.9,162.4c0,0.2,0,0.4,0.1,0.5c0,0.1,0.1,0.1,0.4,0.1c0.5,0,0.5,0,0.7-0.5c0,0,0.1,0,0.1,0c0,0.2-0.1,0.6-0.2,0.7
			c-0.2,0-0.5,0-1,0h-0.4c-0.2,0-0.4,0-0.6,0c0,0,0-0.1,0-0.1l0.1,0c0.2,0,0.2,0,0.2-0.6v-1.8c0-0.5,0-0.5-0.2-0.6l-0.1,0
			c0,0,0-0.1,0-0.1c0.2,0,0.4,0,0.6,0c0.2,0,0.4,0,0.6,0c0,0,0,0.1,0,0.1l-0.1,0c-0.2,0-0.2,0-0.2,0.6L299.9,162.4L299.9,162.4z"/>
		<path d="M305.4,162.7c0,0.2,0,0.3,0.1,0.3c0,0,0,0.1,0,0.1c0,0-0.1,0-0.2,0c-0.3,0.1-0.6,0.1-0.8,0.1c-0.5,0-1-0.2-1.3-0.5
			c-0.2-0.3-0.4-0.7-0.4-1.1c0-0.4,0.1-0.8,0.4-1.1c0.3-0.4,0.7-0.6,1.3-0.6c0.2,0,0.4,0,0.6,0.1c0.1,0,0.2,0,0.3,0
			c0,0.1,0,0.4,0.1,0.8c0,0-0.1,0.1-0.1,0c-0.1-0.5-0.4-0.7-0.8-0.7c-0.7,0-1.1,0.6-1.1,1.5c0,0.4,0.1,0.8,0.3,1.1
			c0.2,0.3,0.6,0.4,0.8,0.4c0.2,0,0.3,0,0.4-0.1c0,0,0-0.1,0-0.3v-0.2c0-0.4,0-0.4-0.3-0.4l-0.1,0c0,0,0-0.1,0-0.1
			c0.2,0,0.4,0,0.6,0c0.2,0,0.3,0,0.5,0c0,0,0,0.1,0,0.1l-0.1,0c-0.2,0-0.2,0.1-0.2,0.4L305.4,162.7L305.4,162.7z"/>
		<path d="M312.4,161.6c0,1-0.6,1.7-1.5,1.7c-0.9,0-1.5-0.8-1.5-1.6c0-1,0.6-1.7,1.5-1.7C311.9,159.9,312.4,160.7,312.4,161.6
			L312.4,161.6z M310,161.5c0,0.7,0.2,1.6,1,1.6c0.5,0,0.9-0.4,0.9-1.4c0-0.7-0.3-1.6-0.9-1.6C310.5,160.1,310,160.4,310,161.5
			L310,161.5z"/>
		<path d="M313.4,160.7c0-0.5,0-0.5-0.2-0.6l-0.1,0c0,0,0-0.1,0-0.1c0.2,0,0.4,0,0.5,0c0.2,0,0.4,0,0.6,0c0,0,0,0.1,0,0.1l-0.1,0
			c-0.2,0-0.2,0-0.2,0.6v1.1c0,0.7,0.2,1.2,0.7,1.2c0.5,0,0.8-0.5,0.8-1.2v-0.6c0-0.4,0-0.8-0.1-1c0-0.1-0.1-0.1-0.2-0.1H315
			c0,0,0-0.1,0-0.1c0.1,0,0.3,0,0.5,0s0.3,0,0.4,0c0,0,0,0.1,0,0.1l-0.1,0c-0.1,0-0.2,0-0.2,0.1c-0.1,0.1-0.1,0.6-0.1,1v0.6
			c0,0.4-0.1,0.9-0.3,1.1c-0.2,0.3-0.5,0.4-0.8,0.4c-0.4,0-0.7-0.1-0.9-0.3c-0.2-0.2-0.3-0.6-0.3-1L313.4,160.7L313.4,160.7z"/>
		<path d="M317.1,160.7c0-0.4,0-0.5-0.2-0.5l-0.1,0c0,0,0-0.1,0-0.1c0.3,0,0.5,0,0.9,0c0.4,0,0.7,0.1,0.9,0.2
			c0.2,0.1,0.4,0.4,0.4,0.7c0,0.7-0.6,0.9-0.9,0.9c0,0-0.1,0-0.1,0c0,0,0-0.1,0-0.1c0.4-0.1,0.5-0.4,0.5-0.8c0-0.4-0.2-0.7-0.6-0.7
			c-0.2,0-0.2,0-0.2,0.2v2.1c0,0.5,0,0.5,0.2,0.6l0.2,0c0,0,0,0.1,0,0.1c-0.2,0-0.4,0-0.6,0c-0.2,0-0.4,0-0.5,0c0,0,0-0.1,0-0.1
			l0.1,0c0.2,0,0.2,0,0.2-0.6L317.1,160.7L317.1,160.7z"/>
		<path d="M272.8,156c0,0,0,0.1,0,0.1c-0.2,0-0.3,0-0.5,0c-0.2,0-0.4,0-0.6,0c0,0,0-0.1,0-0.1l0.1,0c0.2,0,0.2-0.1,0.2-0.4V154
			c0-0.2,0-0.4,0-0.5h0c-0.1,0.3-0.2,0.4-0.2,0.6l-0.4,0.9c-0.1,0.3-0.4,0.9-0.4,1.1c0,0-0.1,0-0.1,0c-0.1-0.3-0.2-0.7-0.3-1l-0.4-1
			c-0.1-0.2-0.2-0.5-0.2-0.7h0c0,0.2,0,0.6,0,0.8c0,0.3,0,0.7,0,1.1c0,0.3,0,0.4,0.2,0.4l0.1,0c0,0,0,0.1,0,0.1c-0.2,0-0.3,0-0.4,0
			c-0.1,0-0.3,0-0.4,0c0,0,0-0.1,0-0.1l0.1,0c0.2,0,0.2-0.1,0.3-0.4c0-0.3,0-0.6,0.1-1.1c0-0.3,0-0.7,0-1c0-0.2-0.1-0.3-0.2-0.4
			l-0.1,0c0,0,0-0.1,0-0.1c0.1,0,0.2,0,0.4,0s0.3,0,0.4,0c0,0.3,0.1,0.5,0.2,0.8l0.5,1.1c0,0.1,0.1,0.3,0.2,0.4
			c0.1-0.1,0.1-0.3,0.2-0.5l0.4-0.9c0.1-0.3,0.3-0.6,0.3-0.9c0.1,0,0.2,0,0.3,0c0.2,0,0.3,0,0.4,0c0,0,0.1,0.1,0,0.1l-0.1,0
			c-0.2,0-0.2,0.1-0.2,0.4c0,0.7,0,1.4,0,2.2c0,0.3,0.1,0.4,0.2,0.4L272.8,156L272.8,156z"/>
		<path d="M274.4,154.9c-0.1,0-0.1,0-0.1,0.1l-0.2,0.6c-0.1,0.3-0.1,0.3,0.1,0.3l0.1,0c0,0,0,0.1,0,0.1c-0.1,0-0.3,0-0.4,0
			c-0.1,0-0.3,0-0.4,0c0,0,0-0.1,0-0.1l0.1,0c0.1,0,0.2-0.1,0.2-0.2c0-0.1,0.1-0.3,0.2-0.6l0.6-1.7c0.1-0.2,0.1-0.3,0.1-0.4
			c0.1,0,0.3-0.2,0.3-0.2c0,0,0.1,0,0.1,0c0.1,0.2,0.1,0.5,0.2,0.7l0.6,2c0.1,0.3,0.1,0.4,0.3,0.4l0.1,0c0,0,0,0.1,0,0.1
			c-0.2,0-0.3,0-0.5,0c-0.2,0-0.4,0-0.5,0c0,0,0-0.1,0-0.1l0.1,0c0.1,0,0.2,0,0.1-0.3l-0.2-0.7c0-0.1-0.1-0.1-0.2-0.1L274.4,154.9
			L274.4,154.9z M274.9,154.7c0.1,0,0.1,0,0.1-0.1l-0.2-0.6c-0.1-0.3-0.1-0.4-0.1-0.4h0c0,0,0,0.2-0.1,0.4l-0.2,0.6
			c0,0.1,0,0.1,0.1,0.1L274.9,154.7L274.9,154.7z"/>
		<path d="M279.4,155.3c0,0.1,0,0.7,0,0.9c0,0.1-0.1,0.1-0.1,0.1c-0.1-0.1-0.2-0.3-0.5-0.7l-1-1.3c-0.3-0.4-0.4-0.5-0.5-0.6
			c0,0,0,0.1,0,0.3v1c0,0.4,0,0.8,0.1,1c0,0.1,0.1,0.1,0.2,0.1l0.1,0c0,0,0,0.1,0,0.1c-0.2,0-0.3,0-0.5,0c-0.2,0-0.3,0-0.4,0
			c0,0,0-0.1,0-0.1l0.1,0c0.1,0,0.2,0,0.2-0.1c0.1-0.1,0.1-0.6,0.1-1v-1.2c0-0.4,0-0.5-0.1-0.6c0,0-0.2-0.1-0.2-0.1l-0.1,0
			c0,0,0-0.1,0-0.1c0.2,0,0.4,0,0.5,0c0.1,0,0.2,0,0.3,0c0.1,0.2,0.5,0.8,0.7,1l0.4,0.5c0.2,0.2,0.6,0.7,0.6,0.8c0,0,0,0,0-0.1v-1
			c0-0.4,0-0.8-0.1-1c0-0.1-0.1-0.1-0.2-0.1l-0.1,0c0,0,0-0.1,0-0.1c0.2,0,0.3,0,0.5,0c0.2,0,0.3,0,0.4,0c0,0,0,0.1,0,0.1l-0.1,0
			c-0.1,0-0.1,0-0.2,0.1c-0.1,0.1-0.1,0.6-0.1,1L279.4,155.3L279.4,155.3z"/>
		<path d="M280.9,153.6c0-0.5,0-0.5-0.2-0.6l-0.1,0c0,0,0-0.1,0-0.1c0.3,0,0.6,0,1,0s0.7,0,1,0.2c0.5,0.2,0.9,0.7,0.9,1.5
			c0,0.5-0.2,1.1-0.7,1.4c-0.3,0.2-0.6,0.2-1,0.2c-0.2,0-0.4,0-0.6,0c-0.2,0-0.3,0-0.5,0c0,0,0-0.1,0-0.1l0.1,0c0.2,0,0.2,0,0.2-0.6
			L280.9,153.6L280.9,153.6z M281.4,155.2c0,0.5,0,0.7,0.5,0.7c0.7,0,1.1-0.6,1.1-1.4c0-1-0.5-1.4-1.2-1.4c-0.2,0-0.3,0-0.3,0.1
			c0,0,0,0.1,0,0.4L281.4,155.2L281.4,155.2z"/>
		<path d="M284.7,154.9c-0.1,0-0.1,0-0.1,0.1l-0.2,0.6c-0.1,0.3-0.1,0.3,0.1,0.3l0.1,0c0,0,0,0.1,0,0.1c-0.1,0-0.3,0-0.4,0
			c-0.1,0-0.3,0-0.4,0c0,0,0-0.1,0-0.1l0.1,0c0.1,0,0.2-0.1,0.2-0.2c0-0.1,0.1-0.3,0.2-0.6l0.6-1.7c0.1-0.2,0.1-0.3,0.1-0.4
			c0.1,0,0.3-0.2,0.3-0.2c0,0,0.1,0,0.1,0c0.1,0.2,0.1,0.5,0.2,0.7l0.6,2c0.1,0.3,0.1,0.4,0.3,0.4l0.1,0c0,0,0,0.1,0,0.1
			c-0.2,0-0.3,0-0.5,0c-0.2,0-0.4,0-0.5,0c0,0,0-0.1,0-0.1l0.1,0c0.1,0,0.2,0,0.1-0.3l-0.2-0.7c0-0.1-0.1-0.1-0.2-0.1L284.7,154.9
			L284.7,154.9z M285.2,154.7c0.1,0,0.1,0,0.1-0.1l-0.2-0.6c-0.1-0.3-0.1-0.4-0.1-0.4h0c0,0,0,0.2-0.1,0.4l-0.2,0.6
			c0,0.1,0,0.1,0.1,0.1L285.2,154.7L285.2,154.7z"/>
		<path d="M287.3,153.6c0-0.5,0-0.5-0.2-0.6l-0.1,0c0,0,0-0.1,0-0.1c0.3,0,0.6,0,1,0c0.3,0,0.6,0,0.8,0.2c0.2,0.1,0.4,0.4,0.4,0.7
			c0,0.5-0.3,0.7-0.5,0.8c0,0,0,0.1,0,0.1c0.3,0.7,0.5,1.1,0.7,1.3c0.1,0.1,0.2,0.1,0.2,0.1c0,0,0,0.1,0,0.1h-0.7
			c0,0-0.1-0.2-0.4-0.6c-0.1-0.2-0.2-0.5-0.3-0.7c-0.1-0.1-0.1-0.2-0.3-0.2c-0.1,0-0.1,0-0.1,0.1v0.6c0,0.5,0,0.5,0.2,0.6l0.1,0
			c0,0,0,0.1,0,0.1c-0.2,0-0.4,0-0.6,0s-0.4,0-0.6,0c0,0,0-0.1,0-0.1l0.1,0c0.2,0,0.2,0,0.2-0.6L287.3,153.6L287.3,153.6z
			 M287.8,154.3c0,0.2,0,0.2,0.2,0.2c0.4,0,0.6-0.2,0.6-0.7c0-0.4-0.2-0.7-0.6-0.7c-0.2,0-0.2,0-0.2,0.2L287.8,154.3L287.8,154.3z"
			/>
		<path d="M301.9,153.6c0-0.5,0-0.5-0.2-0.6l-0.1,0c0,0,0-0.1,0-0.1c0.3,0,0.6,0,1,0c0.3,0,0.6,0,0.8,0.2c0.2,0.1,0.4,0.4,0.4,0.7
			c0,0.5-0.3,0.7-0.5,0.8c0,0,0,0.1,0,0.1c0.3,0.7,0.5,1.1,0.7,1.3c0.1,0.1,0.2,0.1,0.2,0.1c0,0,0,0.1,0,0.1h-0.7
			c0,0-0.1-0.2-0.4-0.6c-0.1-0.2-0.2-0.5-0.3-0.7c-0.1-0.1-0.1-0.2-0.3-0.2c-0.1,0-0.1,0-0.1,0.1v0.6c0,0.5,0,0.5,0.2,0.6l0.1,0
			c0,0,0,0.1,0,0.1c-0.2,0-0.4,0-0.6,0c-0.2,0-0.4,0-0.6,0c0,0,0-0.1,0-0.1l0.1,0c0.2,0,0.2,0,0.2-0.6L301.9,153.6L301.9,153.6z
			 M302.3,154.3c0,0.2,0,0.2,0.2,0.2c0.4,0,0.6-0.2,0.6-0.7c0-0.4-0.2-0.7-0.6-0.7c-0.2,0-0.2,0-0.2,0.2L302.3,154.3L302.3,154.3z"
			/>
		<path d="M291,155.4c0,0.5,0,0.5,0.2,0.6l0.1,0c0,0,0,0.1,0,0.1c-0.2,0-0.4,0-0.6,0c-0.2,0-0.4,0-0.6,0c0,0,0-0.1,0-0.1l0.1,0
			c0.2,0,0.2,0,0.2-0.6v-1.8c0-0.5,0-0.5-0.2-0.6l-0.1,0c0,0,0-0.1,0-0.1c0.2,0,0.4,0,0.6,0c0.2,0,0.4,0,0.6,0c0,0,0,0.1,0,0.1
			l-0.1,0c-0.2,0-0.2,0-0.2,0.6V155.4L291,155.4z"/>
		<path d="M295,155.3c0,0.1,0,0.7,0,0.9c0,0.1-0.1,0.1-0.1,0.1c-0.1-0.1-0.2-0.3-0.5-0.7l-1-1.3c-0.3-0.4-0.4-0.5-0.5-0.6
			c0,0,0,0.1,0,0.3v1c0,0.4,0,0.8,0.1,1c0,0.1,0.1,0.1,0.2,0.1l0.1,0c0,0,0,0.1,0,0.1c-0.2,0-0.3,0-0.5,0c-0.2,0-0.3,0-0.4,0
			c0,0,0-0.1,0-0.1l0.1,0c0.1,0,0.2,0,0.2-0.1c0.1-0.1,0.1-0.6,0.1-1v-1.2c0-0.4,0-0.5-0.1-0.6c0,0-0.2-0.1-0.2-0.1l-0.1,0
			c0,0,0-0.1,0-0.1c0.2,0,0.4,0,0.5,0c0.1,0,0.2,0,0.3,0c0.1,0.2,0.5,0.8,0.7,1l0.4,0.5c0.2,0.2,0.6,0.7,0.6,0.8c0,0,0,0,0-0.1v-1
			c0-0.4,0-0.8-0.1-1c0-0.1-0.1-0.1-0.2-0.1l-0.1,0c0,0,0-0.1,0-0.1c0.2,0,0.3,0,0.5,0c0.2,0,0.3,0,0.4,0c0,0,0,0.1,0,0.1l-0.1,0
			c-0.1,0-0.1,0-0.2,0.1c-0.1,0.1-0.1,0.6-0.1,1L295,155.3L295,155.3z"/>
		<path d="M300.6,154.5c0,1-0.6,1.7-1.5,1.7c-0.9,0-1.5-0.8-1.5-1.6c0-1,0.6-1.7,1.5-1.7C300.1,152.8,300.6,153.6,300.6,154.5
			L300.6,154.5z M298.3,154.4c0,0.7,0.2,1.6,1,1.6c0.5,0,0.9-0.4,0.9-1.4c0-0.7-0.3-1.6-0.9-1.6C298.7,153,298.3,153.3,298.3,154.4
			L298.3,154.4z"/>
		<path d="M305.9,155.4c0,0.5,0,0.5,0.2,0.6l0.1,0c0,0,0,0.1,0,0.1c-0.2,0-0.4,0-0.6,0c-0.2,0-0.4,0-0.6,0c0,0,0-0.1,0-0.1l0.1,0
			c0.2,0,0.2,0,0.2-0.6v-1.8c0-0.5,0-0.5-0.2-0.6l-0.1,0c0,0,0-0.1,0-0.1c0.2,0,0.4,0,0.6,0c0.2,0,0.4,0,0.6,0c0,0,0,0.1,0,0.1
			l-0.1,0c-0.2,0-0.2,0-0.2,0.6V155.4L305.9,155.4z"/>
		<path d="M307.8,153.6c0-0.5,0-0.5-0.2-0.6l-0.1,0c0,0,0-0.1,0-0.1c0.2,0,0.4,0,0.5,0h0.8c0.3,0,0.5,0,0.6,0c0,0.1,0,0.5,0.1,0.7
			c0,0-0.1,0-0.1,0c-0.1-0.3-0.1-0.4-0.3-0.4c-0.1,0-0.2,0-0.3,0h-0.3c-0.2,0-0.2,0-0.2,0.3v0.8c0,0.1,0,0.1,0.1,0.1h0.2
			c0.4,0,0.4,0,0.5-0.2l0-0.2c0,0,0.1,0,0.1,0c0,0.1,0,0.3,0,0.5s0,0.4,0,0.5c0,0-0.1,0-0.1,0l0-0.2c0-0.2-0.1-0.2-0.5-0.2h-0.2
			c-0.1,0-0.1,0-0.1,0.1v0.6c0,0.2,0,0.4,0.1,0.5c0,0.1,0.1,0.1,0.5,0.1c0.5,0,0.6-0.1,0.8-0.5c0,0,0.1,0,0.1,0
			c0,0.2-0.1,0.6-0.2,0.7c-0.2,0-0.5,0-1,0H308c-0.2,0-0.4,0-0.6,0c0,0,0-0.1,0-0.1l0.2,0c0.2,0,0.2,0,0.2-0.6V153.6L307.8,153.6z"
			/>
		<path d="M313.3,155.3c0,0.1,0,0.7,0,0.9c0,0.1-0.1,0.1-0.1,0.1c-0.1-0.1-0.2-0.3-0.5-0.7l-1-1.3c-0.3-0.4-0.4-0.5-0.5-0.6
			c0,0,0,0.1,0,0.3v1c0,0.4,0,0.8,0.1,1c0,0.1,0.1,0.1,0.2,0.1l0.1,0c0,0,0,0.1,0,0.1c-0.2,0-0.3,0-0.5,0c-0.2,0-0.3,0-0.4,0
			c0,0,0-0.1,0-0.1l0.1,0c0.1,0,0.2,0,0.2-0.1c0.1-0.1,0.1-0.6,0.1-1v-1.2c0-0.4,0-0.5-0.1-0.6c0,0-0.2-0.1-0.2-0.1l-0.1,0
			c0,0,0-0.1,0-0.1c0.2,0,0.4,0,0.5,0c0.1,0,0.2,0,0.3,0c0.1,0.2,0.5,0.8,0.7,1l0.4,0.5c0.2,0.2,0.6,0.7,0.6,0.8c0,0,0,0,0-0.1v-1
			c0-0.4,0-0.8-0.1-1c0-0.1-0.1-0.1-0.2-0.1l-0.1,0c0,0,0-0.1,0-0.1c0.2,0,0.3,0,0.5,0c0.2,0,0.3,0,0.4,0c0,0,0,0.1,0,0.1l-0.1,0
			c-0.1,0-0.1,0-0.2,0.1c-0.1,0.1-0.1,0.6-0.1,1L313.3,155.3L313.3,155.3z"/>
		<path d="M315.7,153.3c0-0.2,0-0.2-0.1-0.2h-0.2c-0.4,0-0.5,0.1-0.6,0.5c0,0-0.1,0-0.1,0c0.1-0.3,0.1-0.6,0.2-0.7c0,0,0,0,0,0
			c0,0,0,0,0,0c0,0.1,0.1,0.1,0.4,0.1h1.7c0.2,0,0.3,0,0.3-0.1c0,0,0,0,0,0c0,0,0,0,0.1,0c0,0.2-0.1,0.6-0.1,0.8c0,0-0.1,0-0.1,0
			c-0.1-0.4-0.1-0.5-0.6-0.5h-0.2c-0.1,0-0.1,0-0.1,0.2v2.1c0,0.5,0,0.5,0.2,0.6l0.1,0c0,0,0,0.1,0,0.1c-0.2,0-0.4,0-0.6,0
			c-0.2,0-0.4,0-0.6,0c0,0,0-0.1,0-0.1l0.2,0c0.2,0,0.2,0,0.2-0.6L315.7,153.3L315.7,153.3z"/>
		<path d="M318.7,154.9c-0.1,0-0.1,0-0.1,0.1l-0.2,0.6c-0.1,0.3-0.1,0.3,0.1,0.3l0.1,0c0,0,0,0.1,0,0.1c-0.1,0-0.3,0-0.4,0
			c-0.1,0-0.3,0-0.4,0c0,0,0-0.1,0-0.1l0.1,0c0.1,0,0.2-0.1,0.2-0.2c0-0.1,0.1-0.3,0.2-0.6l0.6-1.7c0.1-0.2,0.1-0.3,0.1-0.4
			c0.1,0,0.3-0.2,0.3-0.2c0,0,0.1,0,0.1,0c0.1,0.2,0.1,0.5,0.2,0.7l0.6,2c0.1,0.3,0.1,0.4,0.3,0.4l0.1,0c0,0,0,0.1,0,0.1
			c-0.2,0-0.3,0-0.5,0c-0.2,0-0.4,0-0.5,0c0,0,0-0.1,0-0.1l0.1,0c0.1,0,0.2,0,0.1-0.3l-0.2-0.7c0-0.1-0.1-0.1-0.2-0.1L318.7,154.9
			L318.7,154.9z M319.2,154.7c0.1,0,0.1,0,0.1-0.1l-0.2-0.6c-0.1-0.3-0.1-0.4-0.1-0.4h0c0,0,0,0.2-0.1,0.4l-0.2,0.6
			c0,0.1,0,0.1,0.1,0.1L319.2,154.7L319.2,154.7z"/>
		<path d="M322.1,155.3c0,0.2,0,0.4,0.1,0.5c0,0.1,0.1,0.1,0.4,0.1c0.5,0,0.5,0,0.7-0.5c0,0,0.1,0,0.1,0c0,0.2-0.1,0.6-0.2,0.7
			c-0.2,0-0.5,0-1,0h-0.4c-0.2,0-0.4,0-0.6,0c0,0,0-0.1,0-0.1l0.1,0c0.2,0,0.2,0,0.2-0.6v-1.8c0-0.5,0-0.5-0.2-0.6l-0.1,0
			c0,0,0-0.1,0-0.1c0.2,0,0.4,0,0.6,0c0.2,0,0.4,0,0.6,0c0,0,0,0.1,0,0.1l-0.1,0c-0.2,0-0.2,0-0.2,0.6L322.1,155.3L322.1,155.3z"/>
	</g>
	<polygon points="269.2,151 323.5,151 323.5,151.3 269.2,151.3 	"/>
	<polygon points="269.2,157.4 323.5,157.4 323.5,157.7 269.2,157.7 	"/>
</g>
<text transform="matrix(1 0 0 1 105.9497 239.6273)"><tspan x="0" y="0" class="st1 st2 st3">M</tspan><tspan x="44.3" y="0" class="st1 st2 st4">A</tspan><tspan x="70.7" y="0" class="st1 st2 st5">G</tspan><tspan x="102.8" y="0" class="st1 st2 st6">A</tspan><tspan x="136.2" y="0" class="st1 st2 st7">Z</tspan><tspan x="164.9" y="0" class="st1 st2 st7">IN</tspan><tspan x="216.8" y="0" class="st1 st2">E</tspan></text>
</svg>
